<svg xmlns="http://www.w3.org/2000/svg" width="26.746" height="26.744" viewBox="0 0 26.746 26.744">
  <g id="add_1_" data-name="add (1)" transform="translate(-8 -8)">
    <g id="Group_3049" data-name="Group 3049" transform="translate(8 8)">
      <path id="Path_2823" data-name="Path 2823" d="M29.452,10H8.836A.836.836,0,0,0,8,10.836v3.9a.836.836,0,0,0,.836.836H29.452a.836.836,0,0,0,.836-.836v-3.9A.836.836,0,0,0,29.452,10Z" transform="translate(-8 -6.657)" fill="#ffd200"/>
      <path id="Path_2824" data-name="Path 2824" d="M8.667,14.333v9.751a1.961,1.961,0,0,0,1.951,1.951H18.6a8.545,8.545,0,0,1-.456-2.787,8.817,8.817,0,0,1,1.973-5.571H16.189a.836.836,0,1,1,0-1.672H21.2a.851.851,0,0,1,.468.145,8.873,8.873,0,0,1,5.383-1.817Zm18.388,0a9.241,9.241,0,0,1,1.672.155v-.155Z" transform="translate(-7.552 -3.747)" fill="#ffd200"/>
      <path id="Path_2825" data-name="Path 2825" d="M30.068,11.614,27,8.271A.84.84,0,0,0,26.387,8H11.9a.834.834,0,0,0-.615.271L8.22,11.614a.836.836,0,0,0,.615,1.4H29.451a.836.836,0,0,0,.617-1.4Z" transform="translate(-8 -8)" fill="#ffd200"/>
    </g>
    <path id="Path_2826" data-name="Path 2826" d="M22.577,15.333a7.243,7.243,0,1,0,7.243,7.245A7.257,7.257,0,0,0,22.577,15.333Zm3.064,8.081H23.413v2.228a.836.836,0,1,1-1.672,0V23.414H19.513a.836.836,0,0,1,0-1.672h2.228V19.514a.836.836,0,0,1,1.672,0v2.228h2.228a.836.836,0,1,1,0,1.672Z" transform="translate(4.926 4.925)" fill="#ffe777"/>
  </g>
</svg>
