<svg xmlns="http://www.w3.org/2000/svg" width="25.577" height="20" viewBox="0 0 25.577 20">
  <path id="Path_2807" data-name="Path 2807" d="M22.462,68.381l-.947-5.05h1.5v-1.5H21.234l-.281-1.5H15.086v1.5H16.68l1.294,9.492H13.744L12.3,68.071a2.247,2.247,0,0,0-1.038-4.241H9.509V55.82H0v9.509H2.506v3H5.093a5.23,5.23,0,0,0-1.578,3.747v.749H5.088a3.747,3.747,0,0,0,7.343,0h5.728a3.747,3.747,0,1,0,4.3-4.442ZM1.5,63.83V57.319H8.01V63.83Zm2.506,3v-1.5h7.261a.749.749,0,1,1,0,1.5Zm4.755,1.5h2.019l1.327,3H5.088A3.753,3.753,0,0,1,8.76,68.326Zm0,5.995a2.252,2.252,0,0,1-2.119-1.5h4.239A2.252,2.252,0,0,1,8.76,74.321Zm10.95-12.49,1.238,6.6a3.744,3.744,0,0,0-1.725.954l-1.03-7.555H19.71Zm2.121,12.49a2.248,2.248,0,1,1,2.248-2.248A2.251,2.251,0,0,1,21.83,74.321Z" transform="translate(0 -55.82)" fill="#555"/>
</svg>
