<svg xmlns="http://www.w3.org/2000/svg" width="22.749" height="20.528" viewBox="0 0 22.749 20.528">
  <g id="calendar" transform="translate(0 -25)">
    <path id="Path_2787" data-name="Path 2787" d="M99.088,249H97.666a.666.666,0,0,0,0,1.333h1.422a.666.666,0,0,0,0-1.333Z" transform="translate(-92.69 -214.047)" fill="#4c8ff8"/>
    <path id="Path_2788" data-name="Path 2788" d="M99.088,313H97.666a.666.666,0,1,0,0,1.333h1.422a.666.666,0,1,0,0-1.333Z" transform="translate(-92.69 -275.204)" fill="#4c8ff8"/>
    <path id="Path_2789" data-name="Path 2789" d="M99.088,377H97.666a.666.666,0,1,0,0,1.333h1.422a.666.666,0,1,0,0-1.333Z" transform="translate(-92.69 -336.36)" fill="#4c8ff8"/>
    <path id="Path_2790" data-name="Path 2790" d="M227.088,249h-1.422a.666.666,0,1,0,0,1.333h1.422a.666.666,0,0,0,0-1.333Z" transform="translate(-215.003 -214.047)" fill="#4c8ff8"/>
    <path id="Path_2791" data-name="Path 2791" d="M227.088,313h-1.422a.666.666,0,1,0,0,1.333h1.422a.666.666,0,0,0,0-1.333Z" transform="translate(-215.003 -275.204)" fill="#4c8ff8"/>
    <path id="Path_2792" data-name="Path 2792" d="M227.088,377h-1.422a.666.666,0,1,0,0,1.333h1.422a.666.666,0,0,0,0-1.333Z" transform="translate(-215.003 -336.36)" fill="#4c8ff8"/>
    <path id="Path_2793" data-name="Path 2793" d="M355.088,249h-1.422a.666.666,0,1,0,0,1.333h1.422a.666.666,0,1,0,0-1.333Z" transform="translate(-337.315 -214.047)" fill="#4c8ff8"/>
    <path id="Path_2794" data-name="Path 2794" d="M355.088,313h-1.422a.666.666,0,1,0,0,1.333h1.422a.666.666,0,1,0,0-1.333Z" transform="translate(-337.315 -275.204)" fill="#4c8ff8"/>
    <path id="Path_2795" data-name="Path 2795" d="M355.088,377h-1.422a.666.666,0,1,0,0,1.333h1.422a.666.666,0,1,0,0-1.333Z" transform="translate(-337.315 -336.36)" fill="#4c8ff8"/>
    <path id="Path_2796" data-name="Path 2796" d="M20.75,26.777h-1.6V25.666a.666.666,0,0,0-1.333,0v1.111H12.041V25.666a.666.666,0,0,0-1.333,0v1.111H4.932V25.666a.666.666,0,0,0-1.333,0v1.111H2a2,2,0,0,0-2,2V43.528a2,2,0,0,0,2,2H20.75a2,2,0,0,0,2-2V28.777A2,2,0,0,0,20.75,26.777Zm-19.417,2A.667.667,0,0,1,2,28.11H3.6v1.111a.666.666,0,1,0,1.333,0V28.11h5.776v1.111a.666.666,0,1,0,1.333,0V28.11h5.776v1.111a.666.666,0,1,0,1.333,0V28.11h1.6a.667.667,0,0,1,.666.666V31.4H1.333ZM20.75,44.195H2a.667.667,0,0,1-.666-.666v-10.8H21.416v10.8A.667.667,0,0,1,20.75,44.195Z" transform="translate(0 0)" fill="#4c8ff8"/>
  </g>
</svg>
