<svg xmlns="http://www.w3.org/2000/svg" width="24.402" height="20" viewBox="0 0 24.402 20">
  <path id="Path_2806" data-name="Path 2806" d="M23.945,47.305l-2.277-.9a3.052,3.052,0,0,0-3.963,1.71L12.658,60.817a2.7,2.7,0,0,0-1.755.426l2.551-6.423a.726.726,0,0,0-.407-.942L5.265,50.787a.726.726,0,0,0-.942.407L1.469,58.38l-.475-.189A.726.726,0,0,0,.458,59.54l8.93,3.552a.721.721,0,0,0,.078.026l.234.093a2.69,2.69,0,1,0,4.306-1.857l5.046-12.706a1.6,1.6,0,0,1,2.079-.9l2.277.9a.726.726,0,0,0,.536-1.349ZM9.252,61.47,2.818,58.915,5.4,52.4l6.433,2.555Zm4.276,2.479a1.239,1.239,0,1,1-.694-1.609A1.231,1.231,0,0,1,13.528,63.949Z" transform="translate(0 -46.184)" fill="#555"/>
</svg>
