<svg xmlns="http://www.w3.org/2000/svg" width="23.906" height="24.727" viewBox="0 0 23.906 24.727">
  <g id="check-list" transform="translate(-8.5)">
    <path id="Path_2798" data-name="Path 2798" d="M31.682,12.17H29.267V11.089a2.851,2.851,0,0,0-2.173-2.754V.724A.724.724,0,0,0,26.369,0H9.224A.724.724,0,0,0,8.5.724V20.574a.724.724,0,0,0,.724.724H20.381v.594a2.841,2.841,0,0,0,2.84,2.835h6.346a2.841,2.841,0,0,0,2.84-2.835v-9a.724.724,0,0,0-.724-.724Zm-3.864-1.082V12.17H24.969V11.089a1.425,1.425,0,0,1,2.849,0ZM9.949,19.849V1.449h15.7v6.9a2.85,2.85,0,0,0-2.125,2.741V12.17H21.105a.724.724,0,0,0-.724.724v6.955Zm21.008,2.043a1.39,1.39,0,0,1-1.391,1.386H23.22a1.39,1.39,0,0,1-1.391-1.386V13.619h1.69v1.908a.724.724,0,0,0,1.449,0V13.619h2.849v1.908a.724.724,0,0,0,1.449,0V13.619h1.69Z" fill="#555"/>
    <path id="Path_2799" data-name="Path 2799" d="M70.667,60.231l-.823.884-.055-.069a.724.724,0,0,0-1.129.908l.58.721a.725.725,0,0,0,.538.27H69.8a.725.725,0,0,0,.53-.231l1.394-1.5a.724.724,0,0,0-1.06-.987Z" transform="translate(-57.101 -57.103)" fill="#555"/>
    <path id="Path_2800" data-name="Path 2800" d="M170.224,76.949H176.7a.724.724,0,0,0,0-1.449h-6.472a.724.724,0,0,0,0,1.449Z" transform="translate(-153.224 -71.854)" fill="#555"/>
    <path id="Path_2801" data-name="Path 2801" d="M70.667,151.231l-.823.884-.055-.069a.724.724,0,0,0-1.129.908l.58.721a.725.725,0,0,0,.538.27H69.8a.725.725,0,0,0,.53-.231l1.394-1.5a.724.724,0,0,0-1.06-.987Z" transform="translate(-57.101 -143.708)" fill="#555"/>
    <path id="Path_2802" data-name="Path 2802" d="M170.224,167.949h4.057a.724.724,0,1,0,0-1.449h-4.057a.724.724,0,1,0,0,1.449Z" transform="translate(-153.224 -158.459)" fill="#555"/>
    <path id="Path_2803" data-name="Path 2803" d="M70.667,242.231l-.823.884-.055-.069a.724.724,0,0,0-1.129.908l.58.721a.724.724,0,0,0,.538.27H69.8a.725.725,0,0,0,.53-.231l1.394-1.5a.724.724,0,0,0-1.06-.987Z" transform="translate(-57.101 -230.313)" fill="#555"/>
    <path id="Path_2804" data-name="Path 2804" d="M171.432,257.5h-1.207a.724.724,0,1,0,0,1.449h1.207a.724.724,0,1,0,0-1.449Z" transform="translate(-153.224 -245.064)" fill="#555"/>
  </g>
</svg>
