<svg id="cold" xmlns="http://www.w3.org/2000/svg" width="146.644" height="146.078" viewBox="0 0 146.644 146.078">
  <path id="Path_2764" data-name="Path 2764" d="M59.03,116.563A29.515,29.515,0,1,1,18.243,89.277V11.272a11.271,11.271,0,0,1,22.542,0V89.277A29.526,29.526,0,0,1,59.03,116.563Zm0,0" fill="#97bffd"/>
  <path id="Path_2765" data-name="Path 2765" d="M79.557,118.514a29.516,29.516,0,0,1-25.4,29.227,29.52,29.52,0,0,1-7.154-56.512V13.223a11.242,11.242,0,0,1,3.311-7.961,11.376,11.376,0,0,1,3.843-2.527,11.315,11.315,0,0,1,7.15,10.489V91.228A29.526,29.526,0,0,1,79.557,118.514Zm0,0" transform="translate(-20.527 -1.951)" fill="#b9d3fd"/>
  <path id="Path_2766" data-name="Path 2766" d="M76.584,334.588a17.745,17.745,0,1,1-21.079-17.428v-8.63a3,3,0,0,1,3-3h.677a3,3,0,0,1,3,3v8.63l.017,0A17.776,17.776,0,0,1,76.584,334.588Zm0,0" transform="translate(-29.324 -218.026)" fill="#0956c6"/>
  <g id="Group_2970" data-name="Group 2970" transform="translate(2.064 17.917)">
    <path id="Path_2767" data-name="Path 2767" d="M93.276,363.558a17.773,17.773,0,0,1-14.395,17.428,17.745,17.745,0,0,1,0-34.853A17.776,17.776,0,0,1,93.276,363.558Zm0,0" transform="translate(-48.079 -264.912)" fill="#2476ed"/>
    <path id="Path_2768" data-name="Path 2768" d="M9.414,66.968h7.5a2.207,2.207,0,1,0,0-4.414h-7.5a2.207,2.207,0,1,0,0,4.414Zm0,0" transform="translate(-7.207 -62.555)" fill="#2476ed"/>
    <path id="Path_2769" data-name="Path 2769" d="M16.912,121.133h-7.5a2.206,2.206,0,1,0,0,4.413h7.5a2.206,2.206,0,1,0,0-4.413Zm0,0" transform="translate(-7.207 -104.355)" fill="#2476ed"/>
    <path id="Path_2770" data-name="Path 2770" d="M16.912,179.711h-7.5a2.207,2.207,0,1,0,0,4.414h7.5a2.207,2.207,0,1,0,0-4.414Zm0,0" transform="translate(-7.207 -146.156)" fill="#2476ed"/>
    <path id="Path_2771" data-name="Path 2771" d="M16.912,238.285h-7.5a2.207,2.207,0,1,0,0,4.414h7.5a2.207,2.207,0,1,0,0-4.414Zm0,0" transform="translate(-7.207 -187.953)" fill="#2476ed"/>
  </g>
  <path id="Path_2772" data-name="Path 2772" d="M246.132,51.9a2.208,2.208,0,0,1-2.207,2.207h-6.188l2.216,1.924A2.21,2.21,0,0,1,238.5,59.9c-1.441,0-1.589-.9-7.488-5.8h-5.97l2.089,2.86a2.81,2.81,0,0,1-2.571,4.446l-3.5-.386,2.977,5.161,7.574,2.6a2.208,2.208,0,0,1-.718,4.293c-.627,0-.874-.209-3.493-1.074l3.1,5.358a2.207,2.207,0,0,1-3.822,2.207l-3.1-5.359-.558,2.881a2.208,2.208,0,0,1-4.334-.845l1.529-7.862-2.984-5.17-1.432,3.24a2.807,2.807,0,0,1-5.135,0l-1.312-2.983-.105-.242L206.268,68.4l1.531,7.858a2.208,2.208,0,0,1-4.334.845l-.559-2.881-3.095,5.359a2.207,2.207,0,0,1-3.823-2.207l3.1-5.358-2.775.953c-2.8.966-4.161-3.237-1.435-4.172l7.573-2.6,2.984-5.172-3.52.383a2.811,2.811,0,0,1-2.565-4.452l2.083-2.84h-5.959c-5.955,4.952-6.052,5.8-7.488,5.8a2.209,2.209,0,0,1-1.45-3.872l2.215-1.924h-6.188a2.207,2.207,0,0,1,0-4.414h6.188l-2.215-1.924a2.207,2.207,0,0,1,2.9-3.331l6.04,5.255h5.971l-2.09-2.86a2.81,2.81,0,0,1,2.572-4.446c2.522.276,3.26.359,3.446.379l.015,0,.04,0-2.977-5.161-7.573-2.6a2.206,2.206,0,1,1,1.435-4.172l2.775.953-3.1-5.358a2.207,2.207,0,0,1,3.823-2.207l3.095,5.358.559-2.88a2.208,2.208,0,0,1,4.334.844l-1.531,7.86,2.984,5.172a.009.009,0,0,0,0-.009l1.426-3.23a2.809,2.809,0,0,1,5.138,0l1.419,3.226,2.977-5.161-1.529-7.86a2.208,2.208,0,0,1,4.334-.844l.558,2.88,3.1-5.358a2.207,2.207,0,1,1,3.822,2.207l-3.1,5.358,2.776-.953a2.206,2.206,0,1,1,1.435,4.172l-7.574,2.6-2.983,5.173,3.519-.383a2.809,2.809,0,0,1,2.563,4.452l-2.081,2.84h5.959l6.04-5.255a2.208,2.208,0,0,1,2.9,3.331l-2.216,1.924h6.188A2.208,2.208,0,0,1,246.132,51.9Zm0,0" transform="translate(-128.696 -16.498)" fill="#97bffd"/>
  <path id="Path_2773" data-name="Path 2773" d="M309.531,274.6a2.208,2.208,0,0,1-2.206,2.207h-9.239l3.9,3.387a2.209,2.209,0,0,1-1.448,3.872c-1.457,0-1.392-.733-9.172-7.259h-8.78l3.264,4.466a2.961,2.961,0,0,1-2.713,4.684l-5.475-.6,4.385,7.594,9.68,3.328a2.209,2.209,0,0,1-.718,4.3c-.644,0-.6-.123-5.6-1.8l4.616,8a2.206,2.206,0,0,1-3.822,2.206l-4.617-8-.988,5.067a2.207,2.207,0,1,1-4.332-.845l1.957-10.048-4.39-7.6-2.235,5.058a2.959,2.959,0,0,1-5.414,0l-1.872-4.253-.347-.791-4.385,7.591,1.957,10.048a2.206,2.206,0,1,1-4.331.845l-.986-5.067-4.62,8a2.207,2.207,0,0,1-3.823-2.206l4.62-8-4.884,1.68a2.259,2.259,0,0,1-.718.12,2.209,2.209,0,0,1-.715-4.3l9.678-3.328,4.392-7.606-5.5.594a2.961,2.961,0,0,1-2.7-4.693l3.257-4.439h-8.768c-7.818,6.553-7.724,7.259-9.172,7.259a2.209,2.209,0,0,1-1.45-3.872l3.9-3.387h-9.237a2.207,2.207,0,0,1,0-4.414h9.237l-3.9-3.39a2.207,2.207,0,0,1,2.9-3.331l7.724,6.721h8.777l-3.26-4.466a2.962,2.962,0,0,1,2.71-4.688l5.475.6-4.383-7.592-9.678-3.331a2.206,2.206,0,1,1,1.433-4.172l4.884,1.68-4.62-8a2.207,2.207,0,1,1,3.823-2.206l4.62,8,.986-5.069a2.206,2.206,0,0,1,4.331.845l-1.957,10.048,4.392,7.606.016-.029,2.219-5.028a2.957,2.957,0,0,1,5.414,0l2.219,5.04,4.383-7.591-1.957-10.048a2.207,2.207,0,0,1,4.332-.845l.988,5.069,4.617-8a2.206,2.206,0,1,1,3.822,2.206l-4.616,8,4.881-1.68a2.206,2.206,0,0,1,1.435,4.172l-9.68,3.331-4.39,7.607,5.5-.594a2.961,2.961,0,0,1,2.7,4.69l-3.257,4.443h8.768l7.724-6.721a2.207,2.207,0,0,1,2.9,3.331l-3.9,3.39h9.239A2.206,2.206,0,0,1,309.531,274.6Zm0,0" transform="translate(-162.887 -170.628)" fill="#97bffd"/>
  <path id="Path_2774" data-name="Path 2774" d="M313.883,51.9a2.208,2.208,0,0,1-2.207,2.207h-6.188l2.216,1.924a2.21,2.21,0,0,1-1.451,3.872c-1.441,0-1.589-.9-7.488-5.8h-5.97l2.089,2.86a2.81,2.81,0,0,1-2.571,4.446l-3.5-.386,2.977,5.161,7.574,2.6a2.208,2.208,0,0,1-.718,4.293c-.627,0-.874-.209-3.493-1.074l3.1,5.358a2.207,2.207,0,0,1-3.822,2.207l-3.1-5.359-.558,2.881a2.208,2.208,0,0,1-4.334-.845l1.529-7.862-2.984-5.17-1.432,3.24a2.807,2.807,0,0,1-5.135,0L277.1,63.477a38.212,38.212,0,0,1-.1-22.9.009.009,0,0,0,0-.009l1.426-3.23a2.809,2.809,0,0,1,5.138,0l1.419,3.226,2.977-5.161-1.529-7.86a2.208,2.208,0,0,1,4.334-.844l.558,2.88,3.1-5.358a2.207,2.207,0,1,1,3.822,2.207l-3.1,5.358,2.776-.953a2.206,2.206,0,0,1,1.435,4.172l-7.574,2.6-2.983,5.173,3.519-.383a2.809,2.809,0,0,1,2.563,4.452l-2.081,2.84h5.959l6.04-5.255a2.208,2.208,0,0,1,2.9,3.331l-2.216,1.924h6.188A2.208,2.208,0,0,1,313.883,51.9Zm0,0" transform="translate(-196.448 -16.498)" fill="#b9d3fd"/>
  <path id="Path_2775" data-name="Path 2775" d="M394.113,274.6a2.208,2.208,0,0,1-2.206,2.207h-9.239l3.9,3.387a2.209,2.209,0,0,1-1.448,3.872c-1.457,0-1.392-.733-9.172-7.259h-8.78l3.264,4.466a2.961,2.961,0,0,1-2.713,4.684l-5.475-.6,4.385,7.594,9.68,3.328a2.209,2.209,0,0,1-.718,4.3c-.644,0-.6-.123-5.6-1.8l4.616,8a2.206,2.206,0,0,1-3.822,2.206l-4.617-8-.988,5.067a2.207,2.207,0,1,1-4.332-.845l1.957-10.048-4.39-7.6-2.235,5.058a2.959,2.959,0,0,1-5.414,0l-1.872-4.253a47.339,47.339,0,0,1-.323-26.737l2.219-5.028a2.957,2.957,0,0,1,5.414,0l2.219,5.04,4.383-7.591-1.957-10.048a2.207,2.207,0,0,1,4.332-.845l.988,5.069,4.617-8a2.206,2.206,0,1,1,3.822,2.206l-4.616,8,4.881-1.68a2.206,2.206,0,1,1,1.435,4.172l-9.68,3.331-4.39,7.607,5.5-.594a2.96,2.96,0,0,1,2.7,4.69l-3.257,4.443h8.768l7.724-6.721a2.207,2.207,0,0,1,2.9,3.331l-3.9,3.39h9.239A2.206,2.206,0,0,1,394.113,274.6Zm0,0" transform="translate(-247.469 -170.628)" fill="#b9d3fd"/>
</svg>
