<svg xmlns="http://www.w3.org/2000/svg" width="11.748" height="14.459" viewBox="0 0 11.748 14.459">
  <g id="trash" transform="translate(-48)">
    <path id="Path_2836" data-name="Path 2836" d="M58.618,1.807H56.133V1.355A1.355,1.355,0,0,0,54.778,0H52.97a1.355,1.355,0,0,0-1.356,1.356v.452H49.13A1.13,1.13,0,0,0,48,2.937v.9a.452.452,0,0,0,.452.452H59.3a.452.452,0,0,0,.452-.452v-.9A1.13,1.13,0,0,0,58.618,1.807Zm-6.1-.452A.452.452,0,0,1,52.97.9h1.807a.452.452,0,0,1,.452.452v.452H52.518Z" transform="translate(0 0)" fill="#ff543e"/>
    <path id="Path_2837" data-name="Path 2837" d="M73.505,184a.141.141,0,0,0-.141.148l.373,7.824a1.354,1.354,0,0,0,1.354,1.291h6.862a1.354,1.354,0,0,0,1.354-1.291l.373-7.824a.141.141,0,0,0-.141-.148Zm6.824,1.13a.452.452,0,1,1,.9,0V191a.452.452,0,1,1-.9,0Zm-2.259,0a.452.452,0,1,1,.9,0V191a.452.452,0,1,1-.9,0Zm-2.259,0a.452.452,0,1,1,.9,0V191a.452.452,0,1,1-.9,0Z" transform="translate(-24.648 -178.804)" fill="#ff543e"/>
  </g>
</svg>
