<svg xmlns="http://www.w3.org/2000/svg" width="64.098" height="42.44" viewBox="0 0 64.098 42.44">
  <g id="delivered" transform="translate(0 -86.501)">
    <path id="Path_2866" data-name="Path 2866" d="M164.1,87.794V122.7a1.289,1.289,0,0,1-1.29,1.29H115.6a1.289,1.289,0,0,1-1.29-1.29V87.794a1.289,1.289,0,0,1,1.29-1.29h27.229v17.935a.53.53,0,0,0,.529.529h12.47a.53.53,0,0,0,.529-.529V86.5h6.451A1.289,1.289,0,0,1,164.1,87.794Z" transform="translate(-99.998 -0.003)" fill="#fddaa9"/>
    <path id="Path_2867" data-name="Path 2867" d="M129.053,310.548H115.6a1.289,1.289,0,0,1-1.29-1.29v-9.5h11.522a2.654,2.654,0,0,1,0,5.308h-8.413Z" transform="translate(-99.998 -186.562)" fill="#fccd8a"/>
    <path id="Path_2868" data-name="Path 2868" d="M485.568,87.794V122.7a1.289,1.289,0,0,1-1.29,1.29h-2.493a1.289,1.289,0,0,0,1.29-1.29V87.794a1.289,1.289,0,0,0-1.29-1.29h2.493A1.289,1.289,0,0,1,485.568,87.794Z" transform="translate(-421.47 -0.003)" fill="#fccd8a"/>
    <g id="Group_3068" data-name="Group 3068" transform="translate(0 110.168)">
      <path id="Path_2869" data-name="Path 2869" d="M80.212,284.386a2.654,2.654,0,0,1-2.654,2.654H69.145l13.95,6.569,8.233-1.03a4.243,4.243,0,0,1,4.322,2.314,1.3,1.3,0,0,1-.888,1.845L80.729,299.73l-21.6-6.345V281.732h18.43A2.654,2.654,0,0,1,80.212,284.386Z" transform="translate(-51.725 -280.958)" fill="#ffa792"/>
      <path id="Path_2870" data-name="Path 2870" d="M95.783,362.957a1.3,1.3,0,0,1-1.027,1.266l-14.032,2.991-21.6-6.344v-2l21.005,6.169,13.643-2.908a1.252,1.252,0,0,0,.967-.969,4.235,4.235,0,0,1,.908,1.214A1.286,1.286,0,0,1,95.783,362.957Z" transform="translate(-51.72 -348.443)" fill="#f69583"/>
      <g id="Group_3065" data-name="Group 3065">
        <path id="Path_2871" data-name="Path 2871" d="M6.086,291.763H1.295A1.3,1.3,0,0,1,0,290.469V276.846a1.3,1.3,0,0,1,1.295-1.295H7.381a1.3,1.3,0,0,1,1.295,1.295v12.328a2.59,2.59,0,0,1-2.59,2.59Z" transform="translate(0 -275.551)" fill="#70d9e6"/>
        <path id="Path_2872" data-name="Path 2872" d="M34.982,276.848v12.328a2.59,2.59,0,0,1-2.59,2.59H30.071a2.59,2.59,0,0,0,2.59-2.59V276.848a1.3,1.3,0,0,0-1.295-1.295h2.321A1.3,1.3,0,0,1,34.982,276.848Z" transform="translate(-26.306 -275.553)" fill="#3ad1e0"/>
      </g>
      <g id="Group_3066" data-name="Group 3066" transform="translate(2.485 11.506)">
        <path id="Path_2873" data-name="Path 2873" d="M20.948,369.4h-.13a.967.967,0,1,1,0-1.934h.13a.967.967,0,1,1,0,1.934Z" transform="translate(-19.851 -367.462)" fill="#3ad1e0"/>
      </g>
      <g id="Group_3067" data-name="Group 3067" transform="translate(14.122 6.082)">
        <path id="Path_2874" data-name="Path 2874" d="M120.206,326.071H116.1a1.59,1.59,0,0,0-1.448.939.965.965,0,0,1-.883.573.966.966,0,0,1-.882-1.362,3.524,3.524,0,0,1,3.214-2.084Z" transform="translate(-112.8 -324.136)" fill="#f69583"/>
      </g>
    </g>
    <path id="Path_2875" data-name="Path 2875" d="M346.1,106.367H330.894a.645.645,0,0,1-.645-.645V86.5h16.5v19.221A.645.645,0,0,1,346.1,106.367Z" transform="translate(-288.905)" fill="#f8f3f1"/>
    <path id="Path_2876" data-name="Path 2876" d="M346.744,86.5v19.22a.645.645,0,0,1-.645.645H330.89a.645.645,0,0,1-.645-.645V86.5Z" transform="translate(-288.901 -0.003)" fill="#f8f3f1"/>
    <path id="Path_2877" data-name="Path 2877" d="M441.272,86.5v19.22a.645.645,0,0,1-.645.645H438.3a.645.645,0,0,0,.645-.645V86.5Z" transform="translate(-383.428 -0.003)" fill="#efe2dd"/>
    <g id="Group_3069" data-name="Group 3069" transform="translate(41.344 97.919)">
      <path id="Path_2878" data-name="Path 2878" d="M330.245,177.706h16.5v1.935h-16.5Z" transform="translate(-330.245 -177.706)" fill="#efe2dd"/>
    </g>
    <g id="Group_3070" data-name="Group 3070" transform="translate(44.236 93.986)">
      <path id="Path_2879" data-name="Path 2879" d="M362.7,148.22h-8.384a.967.967,0,1,1,0-1.934H362.7a.967.967,0,0,1,0,1.934Z" transform="translate(-353.348 -146.286)" fill="#efe2dd"/>
    </g>
    <g id="Group_3071" data-name="Group 3071" transform="translate(44.236 90.632)">
      <path id="Path_2880" data-name="Path 2880" d="M356.379,121.436h-2.064a.967.967,0,1,1,0-1.934h2.064a.967.967,0,1,1,0,1.934Z" transform="translate(-353.348 -119.502)" fill="#efe2dd"/>
    </g>
    <g id="Group_3077" data-name="Group 3077" transform="translate(44.236 101.595)">
      <g id="Group_3072" data-name="Group 3072">
        <path id="Path_2881" data-name="Path 2881" d="M354.446,209h-.129a.967.967,0,1,1,0-1.934h.129a.967.967,0,0,1,0,1.934Z" transform="translate(-353.349 -207.067)" fill="#efe2dd"/>
      </g>
      <g id="Group_3073" data-name="Group 3073" transform="translate(3.031)">
        <path id="Path_2882" data-name="Path 2882" d="M378.655,209h-.129a.967.967,0,0,1,0-1.934h.129a.967.967,0,0,1,0,1.934Z" transform="translate(-377.558 -207.067)" fill="#efe2dd"/>
      </g>
      <g id="Group_3074" data-name="Group 3074" transform="translate(6.062)">
        <path id="Path_2883" data-name="Path 2883" d="M402.864,209h-.129a.967.967,0,1,1,0-1.934h.129a.967.967,0,0,1,0,1.934Z" transform="translate(-401.767 -207.067)" fill="#efe2dd"/>
      </g>
      <g id="Group_3076" data-name="Group 3076" transform="translate(9.092)">
        <g id="Group_3075" data-name="Group 3075">
          <path id="Path_2884" data-name="Path 2884" d="M427.073,209h-.129a.967.967,0,0,1,0-1.934h.129a.967.967,0,0,1,0,1.934Z" transform="translate(-425.976 -207.067)" fill="#efe2dd"/>
        </g>
      </g>
    </g>
    <g id="Group_3078" data-name="Group 3078" transform="translate(19.528 90.652)">
      <path id="Path_2885" data-name="Path 2885" d="M159.811,119.919a.967.967,0,0,0-1.325,0l-2.195,2.064a.967.967,0,1,0,1.325,1.409l.565-.531v2.493a.967.967,0,1,0,1.934,0v-2.493l.565.531a.967.967,0,0,0,1.325-1.409Z" transform="translate(-155.986 -119.656)" fill="#fccd8a"/>
      <path id="Path_2886" data-name="Path 2886" d="M225.086,121.982l-2.195-2.064a.967.967,0,0,0-1.325,0l-2.195,2.064a.967.967,0,1,0,1.325,1.409l.565-.531v2.493a.967.967,0,1,0,1.934,0V122.86l.565.531a.967.967,0,0,0,1.325-1.409Z" transform="translate(-211.169 -119.655)" fill="#fccd8a"/>
    </g>
    <path id="Path_2887" data-name="Path 2887" d="M162.892,206.1l-1.9,3.162a.645.645,0,0,0,.553.977h3.8a.645.645,0,0,0,.553-.977L164,206.1A.645.645,0,0,0,162.892,206.1Z" transform="translate(-140.754 -104.353)" fill="#fb9927"/>
    <g id="Group_3079" data-name="Group 3079" transform="translate(52.318 112.622)">
      <path id="Path_2888" data-name="Path 2888" d="M423.43,297.082h-4.558a.967.967,0,0,1,0-1.934h4.558a.967.967,0,0,1,0,1.934Z" transform="translate(-417.905 -295.148)" fill="#fccd8a"/>
    </g>
    <g id="Group_3080" data-name="Group 3080" transform="translate(40.377 116.022)">
      <path id="Path_2889" data-name="Path 2889" d="M339.99,324.239h-16.5a.967.967,0,0,1,0-1.934h16.5a.967.967,0,1,1,0,1.934Z" transform="translate(-322.524 -322.305)" fill="#fccd8a"/>
    </g>
  </g>
</svg>
