<svg xmlns="http://www.w3.org/2000/svg" width="18.803" height="18.803" viewBox="0 0 18.803 18.803">
  <g id="edit" transform="translate(0 -0.004)">
    <g id="Group_3051" data-name="Group 3051" transform="translate(0 1.347)">
      <g id="Group_3050" data-name="Group 3050">
        <path id="Path_2838" data-name="Path 2838" d="M15.445,42.2a.672.672,0,0,0-.672.672v6.715a.672.672,0,0,1-.672.672H2.015a.672.672,0,0,1-.672-.672V36.152a.672.672,0,0,1,.672-.672h8.058a.672.672,0,1,0,0-1.343H2.015A2.015,2.015,0,0,0,0,36.152V49.582A2.015,2.015,0,0,0,2.015,51.6H14.1a2.015,2.015,0,0,0,2.015-2.015V42.867A.672.672,0,0,0,15.445,42.2Z" transform="translate(0 -34.137)" fill="#555"/>
      </g>
    </g>
    <g id="Group_3053" data-name="Group 3053" transform="translate(4.03 0.004)">
      <g id="Group_3052" data-name="Group 3052" transform="translate(0 0)">
        <path id="Path_2839" data-name="Path 2839" d="M116.429.757a2.57,2.57,0,0,0-3.636,0L103.948,9.6a.679.679,0,0,0-.162.263l-1.343,4.029a.672.672,0,0,0,.637.884.682.682,0,0,0,.212-.034l4.029-1.343a.672.672,0,0,0,.263-.163l8.845-8.845A2.571,2.571,0,0,0,116.429.757Z" transform="translate(-102.409 -0.004)" fill="#555"/>
      </g>
    </g>
  </g>
</svg>
