<svg xmlns="http://www.w3.org/2000/svg" width="148.958" height="118.421" viewBox="0 0 148.958 118.421">
  <g id="empty-white-box" transform="translate(0 -6.071)">
    <g id="Group_3008" data-name="Group 3008" transform="translate(0 6.071)">
      <path id="Path_2811" data-name="Path 2811" d="M129.741,16.026A3.74,3.74,0,0,0,126.1,14.5c-.053-.013-.106-.035-.158-.043L69.086,6.111A3.752,3.752,0,0,0,67.24,6.3L21.705,22.992c-.02.008-.038.02-.058.028-.048.02-.093.05-.143.068a3.905,3.905,0,0,0-.694.395c-.065.048-.128.1-.194.148a3.67,3.67,0,0,0-.626.639c-.01.015-.025.023-.035.038L.727,50.61a3.771,3.771,0,0,0,2.1,5.88L19.514,60.8v41.249a3.776,3.776,0,0,0,2.671,3.609l61.09,18.667c.02.01.043,0,.063.013a3.918,3.918,0,0,0,1.011.151c.008,0,.018.005.028.005h0a3.773,3.773,0,0,0,1.064-.169c.111-.035.214-.083.327-.131a3.781,3.781,0,0,0,.44-.171l43.837-24.328a3.773,3.773,0,0,0,1.942-3.3V55.152l14.829-7.118a3.774,3.774,0,0,0,1.456-5.568Zm-60.8-2.309,44.375,6.514L83.877,33.918,37.263,25.329ZM24.65,30.676,78.062,40.52l-15.7,23.551L10.1,50.577Zm2.409,68.58V62.745l36.01,9.3a3.912,3.912,0,0,0,.943.121,3.775,3.775,0,0,0,3.139-1.68L80.6,50.306v65.311Zm97.382-5.085L88.147,114.309V54.72L94.775,68.8a3.772,3.772,0,0,0,2.148,1.944,3.646,3.646,0,0,0,1.263.219,3.847,3.847,0,0,0,1.632-.367l24.62-11.816.005,35.389ZM99.986,62.149,89.4,39.67l35.97-16.725,14.17,20.213Z" transform="translate(0 -6.071)" fill="#777"/>
    </g>
  </g>
</svg>
