<svg xmlns="http://www.w3.org/2000/svg" width="30.889" height="35.832" viewBox="0 0 30.889 35.832">
  <g id="Page-1" transform="translate(0 0)">
    <g id="_039---Bouquet-Of-Flowers" data-name="039---Bouquet-Of-Flowers" transform="translate(0 0)">
      <path id="Shape" d="M8.2,3.6,6.623,1.823a.618.618,0,0,0-.871-.049l-.927.815c-.093.086-.179.173-.253.253a.565.565,0,0,0-.08.1,5.01,5.01,0,0,0-2.9-.68.505.505,0,0,0-.408.365A5.094,5.094,0,0,0,1.569,5.69a3.672,3.672,0,0,0-.9.593L.21,6.691a.624.624,0,0,0-.056.877l2.051,2.3A3.7,3.7,0,0,0,5.894,11a4.11,4.11,0,0,0,2.138,2.589h2.6c.32.432.649.872,1.008,1.316a.618.618,0,1,0,.961-.777c-.477-.588-.912-1.183-1.334-1.759l-.011-.015H13.9a2.24,2.24,0,0,0,3.089,0h2.647l-.011.015c-.422.576-.858,1.174-1.334,1.759a.618.618,0,0,0,.961.777c.36-.444.688-.882,1.008-1.316h2.6A4.11,4.11,0,0,0,25,11a3.7,3.7,0,0,0,3.688-1.131l2.051-2.3a.624.624,0,0,0-.056-.877l-.457-.408a3.672,3.672,0,0,0-.9-.593A5.094,5.094,0,0,0,29.7,2.626a.505.505,0,0,0-.408-.365,5.01,5.01,0,0,0-2.9.68.565.565,0,0,0-.08-.1c-.074-.08-.161-.167-.253-.253l-.927-.815a.618.618,0,0,0-.871.049L22.692,3.6Z" transform="translate(0 -0.618)" fill="#802f34"/>
      <path id="Shape-2" data-name="Shape" d="M36.7,42.62l-.982.766a.61.61,0,0,1-.8-.037,7.448,7.448,0,0,0-2.86-1.532L32,40.427l.933-.927a9.651,9.651,0,0,1,3.83,2.193.625.625,0,0,1-.062.927Z" transform="translate(-12.231 -15.097)" fill="#e57e25"/>
      <path id="Shape-3" data-name="Shape" d="M16.7,19.718a.618.618,0,0,1-.481-.229c-.494-.61-.94-1.218-1.37-1.806a13.43,13.43,0,0,0-2.587-2.951.618.618,0,1,1,.725-1,14.4,14.4,0,0,1,2.859,3.221c.422.576.858,1.174,1.334,1.759a.618.618,0,0,1-.48,1.006Z" transform="translate(-4.586 -5.199)" fill="#4c8056"/>
      <path id="Shape-4" data-name="Shape" d="M30,19.718a.618.618,0,0,1-.48-1.006c.477-.588.912-1.183,1.334-1.759a14.4,14.4,0,0,1,2.859-3.221.618.618,0,1,1,.725,1,13.43,13.43,0,0,0-2.587,2.951c-.432.588-.875,1.2-1.37,1.806a.618.618,0,0,1-.481.229Z" transform="translate(-11.231 -5.199)" fill="#4c8056"/>
      <path id="Shape-5" data-name="Shape" d="M26.5,50.414H24.725l.476.958a.618.618,0,0,1-.55.9H18.472a.618.618,0,0,1-.55-.9l.476-.958H16.619a.618.618,0,0,1-.55-.9l2.638-5.282L21.561,43l2.854,1.236,2.638,5.282a.618.618,0,0,1-.55.9Z" transform="translate(-6.117 -16.435)" fill="#ff5364"/>
      <path id="Shape-6" data-name="Shape" d="M28.467,21.131,23.976,30.12l-4.708,1.236L14.561,30.12l-4.491-8.989a.618.618,0,0,1,.55-.9h3.843l-.062-.247-.056-.222a.618.618,0,0,1,.6-.766h8.649a.624.624,0,0,1,.6.766l-.056.222-.062.247h3.843a.618.618,0,0,1,.55.9Z" transform="translate(-3.823 -7.262)" fill="#ff5364"/>
      <path id="Shape-7" data-name="Shape" d="M25.942,14.113a2.872,2.872,0,0,1-.927,2.162,2.24,2.24,0,0,1-3.089,0A2.872,2.872,0,0,1,21,14.113a2.965,2.965,0,0,1,.229-1.155,2.588,2.588,0,0,1,.8-1.087,1.846,1.846,0,0,0,2.891,0,2.513,2.513,0,0,1,.8,1.087A2.965,2.965,0,0,1,25.942,14.113Z" transform="translate(-8.026 -4.537)" fill="#f9eab0"/>
      <path id="Shape-8" data-name="Shape" d="M25.7,8.853A1.86,1.86,0,1,1,25.291,7.7,1.839,1.839,0,0,1,25.7,8.853Z" transform="translate(-8.4 -2.675)" fill="#f3d55b"/>
      <path id="Shape-9" data-name="Shape" d="M25.942,2.78a2.965,2.965,0,0,1-.229,1.155,2.513,2.513,0,0,1-.8,1.087,1.846,1.846,0,0,0-2.891,0,2.588,2.588,0,0,1-.8-1.087A2.965,2.965,0,0,1,21,2.78a3.07,3.07,0,0,1,.266-1.248V1.526a2.357,2.357,0,0,1,4.411,0A3.1,3.1,0,0,1,25.942,2.78Z" transform="translate(-8.026 0)" fill="#f9eab0"/>
      <path id="Shape-10" data-name="Shape" d="M32.072,8.471a2.146,2.146,0,0,1-.179.865,2.776,2.776,0,0,1-2.6,1.606,2.965,2.965,0,0,1-1.155-.229,2.513,2.513,0,0,0-.8-1.087,1.84,1.84,0,0,0,0-2.311,2.513,2.513,0,0,0,.8-1.087A2.965,2.965,0,0,1,29.292,6a2.807,2.807,0,0,1,2.533,1.458,2.193,2.193,0,0,1,.247,1.013Z" transform="translate(-10.45 -2.293)" fill="#f5efca"/>
      <path id="Shape-11" data-name="Shape" d="M19.325,8.471a1.839,1.839,0,0,0,.408,1.155,2.588,2.588,0,0,0-.8,1.087,2.965,2.965,0,0,1-1.155.229,2.776,2.776,0,0,1-2.6-1.606A2.146,2.146,0,0,1,15,8.471a2.193,2.193,0,0,1,.247-1.013A2.807,2.807,0,0,1,17.78,6a2.965,2.965,0,0,1,1.155.229,2.588,2.588,0,0,0,.8,1.087A1.839,1.839,0,0,0,19.325,8.471Z" transform="translate(-5.733 -2.293)" fill="#f5efca"/>
      <path id="Shape-12" data-name="Shape" d="M11.732,6.8a2.146,2.146,0,0,0,.179.865A3.662,3.662,0,0,1,10.83,9.366L8.365,6.592a3.621,3.621,0,0,0-1.89-1.137l.049-.173a2.69,2.69,0,0,1,.432-2.341.565.565,0,0,1,.08-.1c.074-.08.161-.167.253-.253l.927-.815a.618.618,0,0,1,.871.049L10.663,3.6l.476.537a3.657,3.657,0,0,1,.84,1.65A2.193,2.193,0,0,0,11.732,6.8Z" transform="translate(-2.465 -0.618)" fill="#c03a2b"/>
      <path id="Shape-13" data-name="Shape" d="M8.365,11.674l-.927.822a3.6,3.6,0,0,1-1.545.815A3.7,3.7,0,0,1,2.206,12.18L.155,9.876A.624.624,0,0,1,.21,9l.457-.408A3.688,3.688,0,0,1,4.01,7.763,3.621,3.621,0,0,1,5.9,8.9Z" transform="translate(0 -2.926)" fill="#e64c3c"/>
      <path id="Shape-14" data-name="Shape" d="M40.055,5.282l.049.173a3.621,3.621,0,0,0-1.89,1.137L35.749,9.366a3.662,3.662,0,0,1-1.081-1.705,2.146,2.146,0,0,0,.179-.865A2.192,2.192,0,0,0,34.6,5.783a3.657,3.657,0,0,1,.84-1.65l.476-.537,1.575-1.773a.618.618,0,0,1,.871-.049l.927.815c.093.086.179.173.253.253a.565.565,0,0,1,.08.1A2.69,2.69,0,0,1,40.055,5.282Z" transform="translate(-13.224 -0.618)" fill="#c03a2b"/>
      <path id="Shape-15" data-name="Shape" d="M44.671,9.876l-2.051,2.3a3.7,3.7,0,0,1-3.688,1.131,3.6,3.6,0,0,1-1.545-.815l-.605-.537-.321-.284L38.925,8.9a3.621,3.621,0,0,1,1.89-1.137,3.688,3.688,0,0,1,3.342.828L44.615,9A.624.624,0,0,1,44.671,9.876Z" transform="translate(-13.935 -2.926)" fill="#e64c3c"/>
      <path id="Shape-16" data-name="Shape" d="M18.311,1.533a3.07,3.07,0,0,0-.266,1.248,2.965,2.965,0,0,0,.229,1.155,2.965,2.965,0,0,0-1.155-.229,2.807,2.807,0,0,0-2.533,1.458,3.657,3.657,0,0,0-.84-1.65l-.476-.537A4.51,4.51,0,0,1,15.173.1.65.65,0,0,1,15.6.007a4.461,4.461,0,0,1,2.712,1.52Z" transform="translate(-5.072 -0.001)" fill="#4fba6f"/>
      <path id="Shape-17" data-name="Shape" d="M33.611,2.978l-.476.537a3.657,3.657,0,0,0-.84,1.65,2.807,2.807,0,0,0-2.533-1.458,2.965,2.965,0,0,0-1.155.229,2.965,2.965,0,0,0,.229-1.155,3.07,3.07,0,0,0-.266-1.248V1.526A4.461,4.461,0,0,1,31.282.007.65.65,0,0,1,31.708.1a4.51,4.51,0,0,1,1.9,2.879Z" transform="translate(-10.92 -0.001)" fill="#4fba6f"/>
      <path id="Shape-18" data-name="Shape" d="M28.566,2.47l-.006.006" transform="translate(-10.916 -0.944)" fill="#e64c3c"/>
      <g id="Group_3102" data-name="Group 3102" transform="translate(9.39 12.974)">
        <path id="Shape-19" data-name="Shape" d="M17.931,27.03a.618.618,0,0,1-.457.748.561.561,0,0,1-.142.019.618.618,0,0,1-.6-.47l-1.514-6.178A.609.609,0,0,1,15.2,21h1.248Z" transform="translate(-15.2 -21)" fill="#df4d60"/>
        <path id="Shape-20" data-name="Shape" d="M33.1,21a.609.609,0,0,1-.019.148l-1.514,6.178a.618.618,0,0,1-.6.47.561.561,0,0,1-.142-.019.618.618,0,0,1-.457-.748L31.852,21Z" transform="translate(-20.991 -21)" fill="#df4d60"/>
        <path id="Shape-21" data-name="Shape" d="M19.853,51.9l-.8,1.569H17.74a.6.6,0,0,1,.068-.284l.945-1.853a.619.619,0,1,1,1.1.568Z" transform="translate(-16.171 -32.465)" fill="#df4d60"/>
        <path id="Shape-22" data-name="Shape" d="M30.91,53.47H29.6L28.8,51.9a.619.619,0,1,1,1.1-.568l.945,1.853a.6.6,0,0,1,.068.284Z" transform="translate(-20.37 -32.465)" fill="#df4d60"/>
      </g>
      <path id="Shape-23" data-name="Shape" d="M27.082,37.834l-.266.71-.871,2.317-.253.68a.622.622,0,0,1-.581.4h-7.1a.622.622,0,0,1-.581-.4l-1.39-3.707A.618.618,0,0,1,16.617,37H26.5a.618.618,0,0,1,.581.834Z" transform="translate(-6.114 -14.141)" fill="#f29c1f"/>
      <path id="Shape-24" data-name="Shape" d="M25.089,41.236H22.618a.618.618,0,0,1,0-1.236h2.471a.618.618,0,0,1,0,1.236Z" transform="translate(-8.409 -15.288)" fill="#f9eab0"/>
    </g>
  </g>
</svg>
