<?xml version="1.0"?>
<svg xmlns="http://www.w3.org/2000/svg" viewBox="0 0 512 512" width="512" height="512"><g id="Fill_out_line" data-name="Fill out line"><ellipse cx="256" cy="448" rx="96" ry="40" style="fill:#3d9de6"/><path d="M400,72V184a144,144,0,0,1-288,0V72c0-26.51,64.47-48,144-48S400,45.49,400,72Z" style="fill:#57c1ff"/><rect x="232" y="312" width="48" height="120" style="fill:#57c1ff"/><path d="M400,72V184a144,144,0,0,1-288,0V72c0,11.42993,11.99,21.92993,32,30.16992V184h32v48h32l48,32-24-64H208V152H176V111.90991C198.88,117.02,226.4,120,256,120,335.53,120,400,98.51,400,72Z" style="fill:#3ea7ff"/><path d="M360.353,30.46924C332.36084,21.13867,295.30078,16,256,16s-76.36084,5.13867-104.353,14.46924C112.26611,43.59619,104,60.29932,104,72V184c0,72.83765,51.50214,133.86328,120,148.59961v69.59705c-18.55157,2.613-34.7879,7.42016-47.2749,14.04162C165.4458,422.21924,152,432.58447,152,448c0,27.36426,44.71045,48,104,48s104-20.63574,104-48c0-15.41553-13.4458-25.78076-24.7251-31.76172-12.487-6.62146-28.72333-11.42859-47.2749-14.04162V332.59961C356.49786,317.86328,408,256.83765,408,184V72C408,60.29932,399.73389,43.59619,360.353,30.46924ZM256,32c84.26123,0,136,23.29736,136,40s-51.73877,40-136,40c-28.06055,0-55.12158-2.72852-78.25781-7.89111A8.00011,8.00011,0,0,0,168,111.917V152a7.99977,7.99977,0,0,0,8,8h24v40a7.99977,7.99977,0,0,0,8,8h18.45605l13.34473,35.58545-27.36329-18.2417A7.99593,7.99593,0,0,0,208,224H184V184a7.99977,7.99977,0,0,0-8-8H152l-.00049-73.82861a8.00008,8.00008,0,0,0-4.95312-7.397C130.11084,87.79785,120,79.28418,120,72,120,55.29736,171.73877,32,256,32Zm24,408a7.99977,7.99977,0,0,0,8-8V418.37183c35.236,5.39648,56,18.79394,56,29.62817,0,15.10547-37.63379,32-88,32s-88-16.89453-88-32c0-10.83423,20.764-24.23169,56-29.62817V432h16V335.15857a152.5427,152.5427,0,0,0,32,0V424H256v16ZM256,320c-74.99072,0-136-61.00928-136-136V98.2019a90.54979,90.54979,0,0,0,15.99951,9.21216L136,184a7.99977,7.99977,0,0,0,8,8h24v40a7.99977,7.99977,0,0,0,8,8h29.57764l45.98485,30.65625a8,8,0,0,0,11.92823-9.46533l-24-64A7.99963,7.99963,0,0,0,232,192H216V152a7.99977,7.99977,0,0,0-8-8H184V121.72168A396.043,396.043,0,0,0,256,128c39.30078,0,76.36084-5.13867,104.353-14.46924,14.28479-4.76159,24.45959-9.99414,31.647-15.28735V184C392,258.99072,330.99072,320,256,320Z"/></g></svg>
