<svg xmlns="http://www.w3.org/2000/svg" width="146.175" height="146.078" viewBox="0 0 146.175 146.078">
  <g id="giftbox" transform="translate(0 -0.001)">
    <path id="Path_2713" data-name="Path 2713" d="M156.732,279.774H42.638a5.411,5.411,0,0,1-5.411-5.411V187.117H162.144v87.245A5.412,5.412,0,0,1,156.732,279.774Zm0,0" transform="translate(-26.598 -133.695)" fill="#ffc73b"/>
    <path id="Path_2714" data-name="Path 2714" d="M37.227,187.117H162.144v18.155H37.227Zm0,0" transform="translate(-26.598 -133.695)" fill="#efb025"/>
    <path id="Path_2715" data-name="Path 2715" d="M146.175,109.942v22.492a4.35,4.35,0,0,1-4.352,4.348H4.348A4.347,4.347,0,0,1,0,132.434V109.942a4.347,4.347,0,0,1,4.348-4.348H141.824A4.35,4.35,0,0,1,146.175,109.942Zm0,0" transform="translate(0 -75.446)" fill="#ffc73b"/>
    <path id="Path_2716" data-name="Path 2716" d="M127.91,98.44q-1.424,1.658-2.789,3.359a126.111,126.111,0,0,0-9.29,13.214q-1.293,2.114-2.5,4.275H83.684q2.6-5.9,5.689-11.558A152.939,152.939,0,0,1,102.119,88.1q1.7-2.23,3.492-4.4c.714-.872,1.44-1.732,2.176-2.588L115.9,88.1c.419.359.839.723,1.257,1.083q4.791,4.125,9.581,8.253C127.132,97.768,127.52,98.105,127.91,98.44Zm0,0" transform="translate(-59.792 -57.952)" fill="#efb025"/>
    <path id="Path_2717" data-name="Path 2717" d="M282.827,119.288H253.179q-1.206-2.161-2.5-4.275a126.611,126.611,0,0,0-9.29-13.214q-1.368-1.7-2.794-3.359c.391-.335.78-.67,1.171-1q4.794-4.13,9.583-8.253c.419-.36.839-.724,1.258-1.083q4.058-3.5,8.116-6.99,1.1,1.281,2.176,2.586,1.792,2.173,3.492,4.4a153.191,153.191,0,0,1,12.749,19.63Q280.225,113.386,282.827,119.288Zm0,0" transform="translate(-170.476 -57.952)" fill="#efb025"/>
    <g id="Group_2967" data-name="Group 2967" transform="translate(17.424 23.158)">
      <path id="Path_2718" data-name="Path 2718" d="M116.692,98.445q-1.425,1.656-2.79,3.358a126.854,126.854,0,0,0-26.589,61.011A127.556,127.556,0,0,1,77,146.722a133.971,133.971,0,0,0-15.968,12.243A153.409,153.409,0,0,1,94.392,83.7c.714-.872,1.44-1.731,2.176-2.588q4.687,4.037,9.373,8.073,4.789,4.125,9.581,8.253C115.913,97.771,116.3,98.109,116.692,98.445Zm0,0" transform="translate(-61.031 -81.113)" fill="#ff4440"/>
      <path id="Path_2719" data-name="Path 2719" d="M311.655,158.965a133.974,133.974,0,0,0-15.968-12.243,127.556,127.556,0,0,1-10.314,16.092A126.854,126.854,0,0,0,258.785,101.8q-1.368-1.7-2.793-3.358c.39-.336.778-.671,1.17-1.006q4.794-4.13,9.584-8.253,4.687-4.042,9.372-8.073,1.1,1.281,2.176,2.586a153.352,153.352,0,0,1,33.361,75.266Zm0,0" transform="translate(-200.331 -81.113)" fill="#ff4440"/>
      <path id="Path_2720" data-name="Path 2720" d="M215.234,141.82H238.51v20.846H215.234Zm0,0" transform="translate(-171.21 -124.489)" fill="#ff4440"/>
    </g>
    <path id="Path_2721" data-name="Path 2721" d="M294.536,114.206l-26.461,7.285a126.51,126.51,0,0,0-9.29-13.215l-1.623-4.364-1.17-3.147,10.754-5.106,11.548-5.487A153.061,153.061,0,0,1,294.536,114.206Zm0,0" transform="translate(-182.907 -64.427)" fill="#ea2f2f"/>
    <path id="Path_2722" data-name="Path 2722" d="M159.546,100.77l-1.17,3.147-1.62,4.364a126.177,126.177,0,0,0-9.29,13.215l-26.458-7.285A153.047,153.047,0,0,1,137.246,90.18l11.549,5.485Zm0,0" transform="translate(-86.46 -64.433)" fill="#ea2f2f"/>
    <path id="Path_2723" data-name="Path 2723" d="M298.226,1.012,256,21.067l8.112,21.817,45.075-12.407a10.422,10.422,0,0,0,7-13.68l-3.72-10A10.421,10.421,0,0,0,298.226,1.012Zm0,0" transform="translate(-182.91 0)" fill="#ff4440"/>
    <path id="Path_2724" data-name="Path 2724" d="M61.489,1.012l42.23,20.055L95.607,42.884,50.533,30.478a10.422,10.422,0,0,1-7-13.68l3.719-10A10.422,10.422,0,0,1,61.489,1.012Zm0,0" transform="translate(-30.633 0)" fill="#ff4440"/>
    <path id="Path_2725" data-name="Path 2725" d="M285.485,63.232a2.328,2.328,0,0,1-1.257-4.288,114.4,114.4,0,0,1,16.658-8.576c12.589-5.092,21-4.819,24.983.812a2.328,2.328,0,1,1-3.8,2.691c-5.407-7.633-27.886,4.236-35.335,9A2.319,2.319,0,0,1,285.485,63.232Zm0,0" transform="translate(-202.315 -33.397)" fill="#ea2f2f"/>
    <path id="Path_2726" data-name="Path 2726" d="M117.729,63.232a2.319,2.319,0,0,1-1.251-.366c-7.449-4.76-29.928-16.628-35.335-9a2.328,2.328,0,1,1-3.8-2.691c3.988-5.631,12.394-5.9,24.983-.812a114.272,114.272,0,0,1,16.658,8.576,2.327,2.327,0,0,1-1.257,4.288Zm0,0" transform="translate(-54.956 -33.397)" fill="#ea2f2f"/>
    <path id="Path_2727" data-name="Path 2727" d="M229.62,47.523H216.376a6.564,6.564,0,0,0-6.563,6.564V73.329a6.564,6.564,0,0,0,6.563,6.564H229.62a6.564,6.564,0,0,0,6.563-6.564V54.088A6.564,6.564,0,0,0,229.62,47.523Zm0,0" transform="translate(-149.911 -33.955)" fill="#ea2f2f"/>
    <path id="Path_2728" data-name="Path 2728" d="M215.234,214.836H238.51v84.743H215.234Zm0,0" transform="translate(-153.785 -153.5)" fill="#ff4440"/>
    <path id="Path_2729" data-name="Path 2729" d="M215.234,214.836H238.51v10.241H215.234Zm0,0" transform="translate(-153.785 -153.5)" fill="#ea2f2f"/>
  </g>
</svg>
