<svg id="giftbox" xmlns="http://www.w3.org/2000/svg" width="47.917" height="47.885" viewBox="0 0 47.917 47.885">
  <path id="Path_2713" data-name="Path 2713" d="M76.4,217.491H39a1.774,1.774,0,0,1-1.774-1.774v-28.6H78.175v28.6A1.774,1.774,0,0,1,76.4,217.491Zm0,0" transform="translate(-33.743 -169.605)" fill="#ffc73b"/>
  <path id="Path_2714" data-name="Path 2714" d="M37.227,187.117H78.175v5.951H37.227Zm0,0" transform="translate(-33.743 -169.605)" fill="#efb025"/>
  <path id="Path_2715" data-name="Path 2715" d="M47.917,107.019v7.373a1.426,1.426,0,0,1-1.426,1.425H1.425A1.425,1.425,0,0,1,0,114.392v-7.373a1.425,1.425,0,0,1,1.425-1.425H46.491A1.426,1.426,0,0,1,47.917,107.019Zm0,0" transform="translate(0 -95.712)" fill="#ffc73b"/>
  <path id="Path_2716" data-name="Path 2716" d="M98.181,86.79q-.467.543-.914,1.1a41.341,41.341,0,0,0-3.045,4.332q-.424.693-.82,1.4H83.684q.852-1.932,1.865-3.789A50.134,50.134,0,0,1,89.727,83.4q.559-.731,1.145-1.443c.234-.286.472-.568.713-.848l2.66,2.291.412.355q1.571,1.352,3.141,2.705C97.926,86.57,98.053,86.681,98.181,86.79Zm0,0" transform="translate(-75.852 -73.519)" fill="#efb025"/>
  <path id="Path_2717" data-name="Path 2717" d="M253.094,93.625h-9.719q-.4-.709-.82-1.4a41.5,41.5,0,0,0-3.045-4.332q-.449-.557-.916-1.1l.384-.329,3.141-2.705.412-.355,2.66-2.291q.362.42.713.848.587.712,1.145,1.444a50.211,50.211,0,0,1,4.179,6.435Q252.241,91.69,253.094,93.625Zm0,0" transform="translate(-216.264 -73.519)" fill="#efb025"/>
  <g id="Group_2967" data-name="Group 2967" transform="translate(5.712 7.591)">
    <path id="Path_2718" data-name="Path 2718" d="M79.277,86.795q-.467.543-.915,1.1a41.584,41.584,0,0,0-8.716,20,41.812,41.812,0,0,1-3.381-5.275,43.917,43.917,0,0,0-5.234,4.013A50.288,50.288,0,0,1,71.967,81.962c.234-.286.472-.567.713-.849l3.073,2.646,3.141,2.705C79.022,86.574,79.149,86.685,79.277,86.795Zm0,0" transform="translate(-61.031 -81.113)" fill="#4c8ff8"/>
    <path id="Path_2719" data-name="Path 2719" d="M274.239,106.634A43.92,43.92,0,0,0,269,102.62a41.821,41.821,0,0,1-3.381,5.275,41.584,41.584,0,0,0-8.716-20q-.449-.557-.915-1.1l.384-.33q1.572-1.354,3.142-2.705l3.072-2.646q.362.42.713.848a50.269,50.269,0,0,1,10.936,24.673Zm0,0" transform="translate(-237.746 -81.113)" fill="#4c8ff8"/>
    <path id="Path_2720" data-name="Path 2720" d="M215.234,141.82h7.63v6.833h-7.63Zm0,0" transform="translate(-200.803 -136.139)" fill="#4c8ff8"/>
  </g>
  <path id="Path_2721" data-name="Path 2721" d="M268.627,98.05l-8.674,2.388a41.464,41.464,0,0,0-3.045-4.332l-.532-1.431-.384-1.032,3.525-1.674,3.786-1.8A50.174,50.174,0,0,1,268.627,98.05Zm0,0" transform="translate(-232.034 -81.733)" fill="#214e95"/>
  <path id="Path_2722" data-name="Path 2722" d="M133.641,93.651l-.384,1.032-.531,1.431a41.36,41.36,0,0,0-3.045,4.332l-8.673-2.388a50.168,50.168,0,0,1,5.323-7.878l3.786,1.8Zm0,0" transform="translate(-109.683 -81.74)" fill="#214e95"/>
  <path id="Path_2723" data-name="Path 2723" d="M269.839.332,256,6.907l2.659,7.152,14.776-4.067a3.416,3.416,0,0,0,2.3-4.485l-1.22-3.279A3.416,3.416,0,0,0,269.839.332Zm0,0" transform="translate(-232.038 -0.001)" fill="#4c8ff8"/>
  <path id="Path_2724" data-name="Path 2724" d="M48.976.332,62.819,6.907,60.16,14.058,45.384,9.991a3.416,3.416,0,0,1-2.3-4.485l1.219-3.279A3.416,3.416,0,0,1,48.976.332Zm0,0" transform="translate(-38.861 -0.001)" fill="#4c8ff8"/>
  <path id="Path_2725" data-name="Path 2725" d="M283.919,52.148a.763.763,0,0,1-.412-1.406,37.5,37.5,0,0,1,5.461-2.811c4.127-1.669,6.882-1.58,8.19.266a.763.763,0,1,1-1.245.882c-1.772-2.5-9.141,1.388-11.583,2.949A.76.76,0,0,1,283.919,52.148Zm0,0" transform="translate(-256.655 -42.368)" fill="#214e95"/>
  <path id="Path_2726" data-name="Path 2726" d="M90.295,52.148a.76.76,0,0,1-.41-.12c-2.442-1.56-9.811-5.451-11.583-2.949a.763.763,0,1,1-1.245-.882c1.307-1.846,4.063-1.935,8.19-.266a37.46,37.46,0,0,1,5.461,2.811.763.763,0,0,1-.412,1.406Zm0,0" transform="translate(-69.717 -42.368)" fill="#214e95"/>
  <path id="Path_2727" data-name="Path 2727" d="M216.306,47.523h-4.342a2.152,2.152,0,0,0-2.151,2.152v6.307a2.152,2.152,0,0,0,2.151,2.152h4.342a2.152,2.152,0,0,0,2.151-2.152V49.675A2.152,2.152,0,0,0,216.306,47.523Zm0,0" transform="translate(-190.177 -43.076)" fill="#214e95"/>
  <path id="Path_2728" data-name="Path 2728" d="M215.234,214.836h7.63v27.779h-7.63Zm0,0" transform="translate(-195.091 -194.73)" fill="#4c8ff8"/>
  <path id="Path_2729" data-name="Path 2729" d="M215.234,214.836h7.63v3.357h-7.63Zm0,0" transform="translate(-195.091 -194.73)" fill="#214e95"/>
</svg>
