<svg xmlns="http://www.w3.org/2000/svg" width="14.406" height="20.489" viewBox="0 0 14.406 20.489">
  <g id="google-maps" transform="translate(-76)">
    <g id="Google_Maps_2_" transform="translate(76.384 6.543)">
      <g id="Group_3027" data-name="Group 3027" transform="translate(0)">
        <path id="Path_2807" data-name="Path 2807" d="M93.079,167.7l-2.2,3.4-2.1.9a14.134,14.134,0,0,1-3.181-5.222l1.257-2.337,2.021-.94a3.975,3.975,0,0,0-.06.66,3.612,3.612,0,0,0,3.6,3.6A3.975,3.975,0,0,0,93.079,167.7Z" transform="translate(-85.6 -163.5)" fill="#ffda2d"/>
      </g>
    </g>
    <path id="Path_2808" data-name="Path 2808" d="M243.7,19.092a3.929,3.929,0,0,0,.06-.657,3.612,3.612,0,0,0-3.6-3.6h0a3.972,3.972,0,0,0-.66.06l3.193-3.193a7.185,7.185,0,0,1,4.2,4.2L243.7,19.1S243.7,19.093,243.7,19.092Z" transform="translate(-156.957 -11.232)" fill="#80aef8"/>
    <path id="Path_2809" data-name="Path 2809" d="M262.764,15.9l-1.092,2.133-2.1,1.06s0,0,0,0a3.929,3.929,0,0,0,.06-.657,3.612,3.612,0,0,0-3.6-3.6h0v-.6l.719-1.6,1.813-.932A7.186,7.186,0,0,1,262.764,15.9Z" transform="translate(-172.826 -11.232)" fill="#4086f4"/>
    <g id="Group_3028" data-name="Group 3028" transform="translate(79.565 4.67)">
      <path id="Path_2810" data-name="Path 2810" d="M175.471,116.7l-3.193,3.193a3.638,3.638,0,0,1-2.881,2.881h0l-3.476,3.476-.821.821c.2.228.384.432.576.648,1.321,1.5,2.461,2.877,2.461,4.2a.6.6,0,1,0,1.2,0c0-1.321,1.14-2.7,2.461-4.2,1.849-2.077,4.142-4.67,4.142-8.488A6.879,6.879,0,0,0,175.471,116.7Z" transform="translate(-165.098 -116.7)" fill="#59c36a"/>
      <path id="Path_2811" data-name="Path 2811" d="M262.765,116.7l-3.193,3.193h0a3.638,3.638,0,0,1-2.881,2.881h0l-.659.659v9.085a.594.594,0,0,0,.6-.6c0-1.321,1.14-2.7,2.461-4.2,1.849-2.077,4.142-4.67,4.142-8.488a6.878,6.878,0,0,0-.468-2.533Z" transform="translate(-252.392 -116.7)" fill="#00a66c"/>
    </g>
    <g id="Google_Maps_3_" transform="translate(83.204 10.745)">
      <path id="Path_2812" data-name="Path 2812" d="M256.031,269.159l.659-.659a3.989,3.989,0,0,1-.659.06Z" transform="translate(-256.031 -268.5)" fill="#fdbf00"/>
    </g>
    <path id="Path_2813" data-name="Path 2813" d="M136.423.468,133.23,3.662a3.643,3.643,0,0,0-1.885,1l-1.857-.776L128.8,2.113A7.136,7.136,0,0,1,133.89,0,6.879,6.879,0,0,1,136.423.468Z" transform="translate(-50.687)" fill="#4086f4"/>
    <path id="Path_2814" data-name="Path 2814" d="M256.031,3,258.563.471A6.878,6.878,0,0,0,256.031,0V3Z" transform="translate(-172.827 -0.003)" fill="#4175df"/>
    <path id="Path_2815" data-name="Path 2815" d="M80.658,55.345a3.644,3.644,0,0,0-1,1.885l-3.277,3.277A9.063,9.063,0,0,1,76,57.89a7.136,7.136,0,0,1,2.113-5.09Z" transform="translate(0 -50.687)" fill="#f03800"/>
  </g>
</svg>
