<svg xmlns="http://www.w3.org/2000/svg" width="20.061" height="18.059" viewBox="0 0 20.061 18.059">
  <g id="graph" transform="translate(0 -25.55)">
    <g id="Group_2983" data-name="Group 2983" transform="translate(0 25.55)">
      <path id="Path_2781" data-name="Path 2781" d="M18.059,25.55a2,2,0,0,0-1.442,3.394l-3.664,7.332a1.647,1.647,0,0,0-.243-.024,2,2,0,0,0-.756.149L9.108,33.2a2,2,0,1,0-3.754-.964,1.991,1.991,0,0,0,.494,1.3L2.363,39.631a1.834,1.834,0,0,0-.357-.035,2.035,2.035,0,1,0,1.513.705L7,34.207a1.887,1.887,0,0,0,1.109-.114l2.845,3.2a2,2,0,1,0,3.194-.423l3.664-7.332a1.647,1.647,0,0,0,.243.024,2.007,2.007,0,0,0,0-4.013Z" transform="translate(0 -25.55)" fill="#555"/>
    </g>
  </g>
</svg>
