<svg id="help" xmlns="http://www.w3.org/2000/svg" width="22.65" height="22.65" viewBox="0 0 22.65 22.65">
  <g id="Group_3045" data-name="Group 3045">
    <g id="Group_3044" data-name="Group 3044">
      <path id="Path_2819" data-name="Path 2819" d="M11.325,0A11.325,11.325,0,1,0,22.65,11.325,11.338,11.338,0,0,0,11.325,0Zm0,20.763a9.438,9.438,0,1,1,9.438-9.438A9.448,9.448,0,0,1,11.325,20.763Z" fill="#4c8ff8"/>
    </g>
  </g>
  <g id="Group_3048" data-name="Group 3048" transform="translate(7.607 5.16)">
    <g id="Group_3047" data-name="Group 3047">
      <g id="Group_3046" data-name="Group 3046">
        <path id="Path_2820" data-name="Path 2820" d="M226.388,344.96a1.142,1.142,0,0,0-1.123,1.123c0,.019,0,.039,0,.058a1.124,1.124,0,0,0,1.161,1.084h-.038a1.133,1.133,0,0,0,0-2.265Z" transform="translate(-222.905 -334.86)" fill="#4c8ff8"/>
        <path id="Path_2821" data-name="Path 2821" d="M175.643,116.648a4.718,4.718,0,0,0-3.539,1.444.738.738,0,0,0-.16.472.783.783,0,0,0,.755.774.8.8,0,0,0,.529-.2,3.088,3.088,0,0,1,2.237-.944c1.274,0,1.888.689,1.888,1.5,0,1.737-3.086,1.954-3.086,4.209,0,.547.34,1.557,1.048,1.557h.019a.689.689,0,0,0,.689-.689c0-.255-.179-.472-.179-.727,0-1.7,3.322-1.935,3.4-4.568C179.239,117.875,177.88,116.648,175.643,116.648Z" transform="translate(-171.944 -116.646)" fill="#4c8ff8"/>
      </g>
    </g>
  </g>
</svg>
