<svg xmlns="http://www.w3.org/2000/svg" width="21.454" height="21.269" viewBox="0 0 21.454 21.269">
  <path id="home_1_" data-name="home (1)" d="M21.377,9.251l0,0L12.623.574a1.987,1.987,0,0,0-2.793,0L1.082,9.245l-.009.009a1.948,1.948,0,0,0,0,2.765,1.972,1.972,0,0,0,1.311.571l.061,0H2.8v6.385a2.3,2.3,0,0,0,2.312,2.292H8.533a.626.626,0,0,0,.629-.623V15.64a1.051,1.051,0,0,1,1.055-1.046h2.02a1.051,1.051,0,0,1,1.055,1.046v5.006a.626.626,0,0,0,.629.623h3.424a2.3,2.3,0,0,0,2.312-2.292V12.593h.323a1.971,1.971,0,0,0,1.4-.574A1.949,1.949,0,0,0,21.377,9.251Zm-.89,1.887a.717.717,0,0,1-.508.209h-.952a.626.626,0,0,0-.629.623v7.008a1.051,1.051,0,0,1-1.055,1.045h-2.8V15.64a2.3,2.3,0,0,0-2.312-2.292h-2.02A2.3,2.3,0,0,0,7.9,15.64v4.383h-2.8a1.051,1.051,0,0,1-1.055-1.045V11.97a.626.626,0,0,0-.629-.623H2.461a.716.716,0,0,1-.495-.208.708.708,0,0,1,0-1.007h0l8.752-8.676a.722.722,0,0,1,1.015,0l8.75,8.674,0,0A.709.709,0,0,1,20.487,11.138Zm0,0" transform="translate(-0.499)" fill="#fff"/>
</svg>
