<svg xmlns="http://www.w3.org/2000/svg" xmlns:xlink="http://www.w3.org/1999/xlink" width="25.767" height="25.772" viewBox="0 0 25.767 25.772">
  <defs>
    <linearGradient id="linear-gradient" x1="0.935" y1="0.062" x2="0.051" y2="0.909" gradientUnits="objectBoundingBox">
      <stop offset="0" stop-color="#c837ab"/>
      <stop offset="0.505" stop-color="#ff543e"/>
      <stop offset="1" stop-color="#fd5"/>
    </linearGradient>
  </defs>
  <g id="instagram" transform="translate(0.07 0.038)">
    <path id="Path_140" data-name="Path 140" d="M1.611,1.751C-.408,3.848,0,6.076,0,12.844,0,18.464-.976,24.1,4.156,25.425c1.6.412,15.8.412,17.4,0a5.519,5.519,0,0,0,4.113-5.307c.033-.422.033-14.115,0-14.545A5.527,5.527,0,0,0,20.826.12,23.113,23.113,0,0,0,17.037,0C6.147.008,3.759-.477,1.611,1.751Z" transform="translate(0)" fill="url(#linear-gradient)"/>
    <path id="Path_141" data-name="Path 141" d="M12.623,3.14c-3.887,0-7.578-.346-8.988,3.273-.582,1.494-.5,3.435-.5,6.214,0,2.439-.078,4.731.5,6.213,1.407,3.621,5.128,3.274,8.986,3.274,3.722,0,7.56.388,8.987-3.274.583-1.509.5-3.421.5-6.213,0-3.706.2-6.1-1.593-7.9-1.82-1.82-4.281-1.592-7.894-1.592Zm-.85,1.71c8.108-.013,9.14-.914,8.571,11.608-.2,4.429-3.575,3.943-7.72,3.943-7.558,0-7.775-.216-7.775-7.777,0-7.649.6-7.769,6.924-7.775Zm5.914,1.575a1.138,1.138,0,1,0,1.138,1.138A1.138,1.138,0,0,0,17.687,6.424ZM12.623,7.755a4.871,4.871,0,1,0,4.87,4.872,4.872,4.872,0,0,0-4.87-4.872Zm0,1.71c4.18,0,4.186,6.325,0,6.325S8.437,9.464,12.623,9.464Z" transform="translate(0.226 0.224)" fill="#fff"/>
  </g>
</svg>
