<svg xmlns="http://www.w3.org/2000/svg" width="225.005" height="152.078" viewBox="0 0 225.005 152.078">
  <g id="Group_2971" data-name="Group 2971" transform="translate(-75.057 -146)">
    <g id="honey" transform="translate(75.057 146)">
      <path id="Path_2730" data-name="Path 2730" d="M144,88v4.443a23.851,23.851,0,0,0,2.519,10.668,23.851,23.851,0,0,1,2.519,10.668v37.185h15.111V113.78a23.851,23.851,0,0,1,2.519-10.668,23.851,23.851,0,0,0,2.519-10.668V88Zm0,0" transform="translate(-98.665 -60.296)" fill="#faa400"/>
      <path id="Path_2731" data-name="Path 2731" d="M98.225,288.595H17.63L2.461,251.758a32.685,32.685,0,0,1,16.948-42.309L22.667,208h70.52l3.259,1.449a32.685,32.685,0,0,1,16.948,42.309Zm0,0" transform="translate(0 -142.517)" fill="#e3e3e1"/>
      <path id="Path_2732" data-name="Path 2732" d="M72,160h70.52v15.111H72Zm0,0" transform="translate(-49.333 -109.628)" fill="#dbdbd9"/>
      <path id="Path_2733" data-name="Path 2733" d="M160,208h15.111v25.186H160Zm0,0" transform="translate(-109.628 -142.517)" fill="#fa9600"/>
      <path id="Path_2734" data-name="Path 2734" d="M160.036,175.111h15.111V160.594c0-.2.029-.395.032-.594H160c0,.2.036.4.036.594Zm0,0" transform="translate(-109.628 -109.628)" fill="#f28d00"/>
      <path id="Path_2735" data-name="Path 2735" d="M121.63,0h15.111a17.63,17.63,0,1,1,0,35.26H121.63a17.63,17.63,0,1,1,0-35.26Zm0,0" transform="translate(-71.258)" fill="#faa400"/>
      <path id="Path_2736" data-name="Path 2736" d="M136.741,52.593H121.63A17.631,17.631,0,0,1,104.74,40a17.614,17.614,0,0,0,16.89,22.667h15.112A17.614,17.614,0,0,0,153.631,40,17.631,17.631,0,0,1,136.741,52.593Zm0,0" transform="translate(-71.258 -27.407)" fill="#fa9600"/>
      <path id="Path_2737" data-name="Path 2737" d="M304.029,32.113a7.463,7.463,0,0,0-4.71.687,17.842,17.842,0,0,1-8.12,1.713h-29.55a17.5,17.5,0,0,1,0,10.074h30.767a17.122,17.122,0,0,1,7.156,1.836,7.421,7.421,0,0,0,3.115.683,7.556,7.556,0,0,0,1.343-14.993Zm0,0" transform="translate(-179.275 -21.921)" fill="#995023"/>
      <g id="Group_2968" data-name="Group 2968" transform="translate(42.816)">
        <path id="Path_2738" data-name="Path 2738" d="M216,.641V35.5a17.4,17.4,0,0,0,5.037-1.511V2.159A17.411,17.411,0,0,0,216,.641Zm0,0" transform="translate(-190.814 -0.439)" fill="#e87d0a"/>
        <path id="Path_2739" data-name="Path 2739" d="M176,0h5.037V35.26H176Zm0,0" transform="translate(-163.407)" fill="#e87d0a"/>
        <path id="Path_2740" data-name="Path 2740" d="M136,2.159V33.979a17.434,17.434,0,0,0,5.037,1.511V.641A17.41,17.41,0,0,0,136,2.159Zm0,0" transform="translate(-136 -0.439)" fill="#e87d0a"/>
      </g>
      <path id="Path_2741" data-name="Path 2741" d="M267.426,50.074V40h-5.777a17.5,17.5,0,0,1,0,10.074Zm0,0" transform="translate(-179.275 -27.407)" fill="#8f4b21"/>
      <path id="Path_2742" data-name="Path 2742" d="M1.98,272a32.589,32.589,0,0,0,.481,23.609L17.63,332.446H98.225l15.169-36.837A32.589,32.589,0,0,0,113.875,272Zm0,0" transform="translate(0 -186.368)" fill="#faa400"/>
      <path id="Path_2743" data-name="Path 2743" d="M24.382,309.218A25.313,25.313,0,0,1,24,304.834c0-.407.01-.809.031-1.209l5.037.236c-.016.322-.026.648-.026.973a20.339,20.339,0,0,0,.3,3.509Zm0,0" transform="translate(-16.444 -208.037)" fill="#fdb62f"/>
      <path id="Path_2744" data-name="Path 2744" d="M30.016,333.683l4.657-1.917,8.451,20.524-4.658,1.918Zm0,0" transform="translate(-20.566 -227.318)" fill="#fdb62f"/>
      <path id="Path_2745" data-name="Path 2745" d="M235.259,209.449a32.663,32.663,0,0,1,17.428,18.7h20.149c.3.824.562,1.665.8,2.519a32.668,32.668,0,0,0-18.224-21.214L252.149,208H232Zm0,0" transform="translate(-158.961 -142.517)" fill="#dbdbd9"/>
      <path id="Path_2746" data-name="Path 2746" d="M232,160h20.149v15.111H232Zm0,0" transform="translate(-158.961 -109.628)" fill="#d1d1cf"/>
      <path id="Path_2747" data-name="Path 2747" d="M285.658,280.451c-.021-.231-.053-.461-.076-.69-.073-.685-.159-1.367-.274-2.04-.038-.216-.077-.433-.12-.647q-.2-1.081-.478-2.141c-.038-.144-.074-.287-.114-.43-.234-.849-.5-1.69-.8-2.519H263.65c.3.824.562,1.663.8,2.519.041.144.076.287.114.43q.273,1.062.478,2.141c.043.214.082.43.121.647.113.675.2,1.355.274,2.04.023.229.055.459.076.69.073.894.121,1.793.121,2.7a32.7,32.7,0,0,1-2.461,12.444L248,332.435h20.149L283.318,295.6a32.7,32.7,0,0,0,2.461-12.444C285.779,282.244,285.733,281.345,285.658,280.451Zm0,0" transform="translate(-169.924 -186.357)" fill="#fa9600"/>
    </g>
    <g id="olive-oil" transform="translate(172.285 152)">
      <path id="Path_2748" data-name="Path 2748" d="M35.635,300.135c-4.762-4.77-4.943-12.7-4.815-15.769A1.422,1.422,0,0,1,32.182,283c3.071-.129,10.981.054,15.741,4.823,6,6.014,4.726,17.043,4.726,17.043S41.639,306.149,35.635,300.135Z" transform="translate(-35.89 -204.841)" fill="#98db7c"/>
      <path id="Path_2749" data-name="Path 2749" d="M40.343,295.331c-3.445-3.451-4.491-8.551-4.758-12.273a31.2,31.2,0,0,0-3.4-.049,1.421,1.421,0,0,0-1.361,1.362c-.129,3.075.053,11,4.815,15.769,6,6.014,17.015,4.734,17.015,4.734a28.435,28.435,0,0,0,.032-4.769c-3.723-.257-8.867-1.294-12.339-4.772Z" transform="translate(-35.89 -204.845)" fill="#82d361"/>
      <path id="Path_2750" data-name="Path 2750" d="M76.076,326.321a2.138,2.138,0,0,1-1.695-3.439l19.434-25.339q.486-.678,1.026-1.335a2.138,2.138,0,0,1,3.347,2.66l-.923,1.2c-6.177,8.678-4.878,20.781-4.864,20.908a2.138,2.138,0,0,1-4.247.495,40.918,40.918,0,0,1,.306-9.923L77.773,325.484A2.134,2.134,0,0,1,76.076,326.321Z" transform="translate(-67.121 -213.854)" fill="#994e37"/>
      <path id="Path_2751" data-name="Path 2751" d="M376.083,120.027a28.1,28.1,0,0,0-12.373,2.855,7.615,7.615,0,0,0-.415,2.46v.02a39.1,39.1,0,0,0,1.378,10.287,17.071,17.071,0,1,1,19.638,27.659,53.47,53.47,0,0,1,5.846,9.594,28.325,28.325,0,0,0-14.074-52.875Z" transform="translate(-276.579 -86.885)" fill="#c6c6c6"/>
      <path id="Path_2752" data-name="Path 2752" d="M290.455,10.6H256.519V5.3a5.3,5.3,0,0,1,5.3-5.3h23.334a5.3,5.3,0,0,1,5.3,5.3v5.3Z" transform="translate(-199.286 0)" fill="#cc624e"/>
      <path id="Path_2753" data-name="Path 2753" d="M342.352,0h-6.816a5.3,5.3,0,0,1,5.3,5.3v5.3h6.816V5.3a5.3,5.3,0,0,0-5.3-5.3Z" transform="translate(-256.485)" fill="#bc574a"/>
      <path id="Path_2754" data-name="Path 2754" d="M184.425,169.158a11.01,11.01,0,0,1-8.3-3.771c-7.665-8.8-13.857-19.646-13.857-31.714,0-17.593,9.668-30.294,18.262-38.108A39.638,39.638,0,0,0,193.588,66.26v-.02a7.621,7.621,0,0,0-1.9-5.032l-5.072-5.767a15.11,15.11,0,0,1-3.762-9.979V41.144a2.761,2.761,0,0,1,2.759-2.764h40.13a2.761,2.761,0,0,1,2.759,2.764v4.318a15.11,15.11,0,0,1-3.762,9.979l-5.072,5.767a7.621,7.621,0,0,0-1.9,5.032v.02a39.638,39.638,0,0,0,13.063,29.305c8.594,7.814,18.262,20.515,18.262,38.108,0,12.068-6.192,22.913-13.857,31.714a11.009,11.009,0,0,1-8.3,3.771Z" transform="translate(-131.056 -27.782)" fill="#e0e0e0"/>
      <path id="Path_2755" data-name="Path 2755" d="M445.042,258.62a17.161,17.161,0,0,1-5.634,5.012,53.454,53.454,0,0,1,5.846,9.594,28.425,28.425,0,0,0,6.393-5.03A56.133,56.133,0,0,0,445.042,258.62Z" transform="translate(-331.675 -187.209)" fill="#bababa"/>
      <path id="Path_2756" data-name="Path 2756" d="M370.992,123.93v-.02a7.621,7.621,0,0,1,.42-2.476,28.071,28.071,0,0,0-7.7,2.467,7.616,7.616,0,0,0-.415,2.46v.02a39.1,39.1,0,0,0,1.378,10.287,17,17,0,0,1,7.334-3.9A39.073,39.073,0,0,1,370.992,123.93Z" transform="translate(-276.579 -87.903)" fill="#bababa"/>
      <path id="Path_2757" data-name="Path 2757" d="M356.183,95.564A39.638,39.638,0,0,1,343.12,66.259v-.02a7.62,7.62,0,0,1,1.9-5.032l5.072-5.767a15.11,15.11,0,0,0,3.762-9.979V41.143a2.762,2.762,0,0,0-2.759-2.764h-7.7a2.762,2.762,0,0,1,2.759,2.764v4.318a15.11,15.11,0,0,1-3.762,9.979l-5.072,5.767a7.62,7.62,0,0,0-1.9,5.032v.02a39.638,39.638,0,0,0,13.063,29.305c8.594,7.814,18.262,20.515,18.262,38.108,0,12.068-6.192,22.913-13.857,31.714a11.008,11.008,0,0,1-8.3,3.771h7.7a11.01,11.01,0,0,0,8.3-3.771c7.665-8.8,13.857-19.646,13.857-31.714,0-17.593-9.668-30.294-18.262-38.108Z" transform="translate(-256.403 -27.782)" fill="#ccc"/>
      <path id="Path_2758" data-name="Path 2758" d="M230.836,230.961a40.312,40.312,0,0,1-5.053-5.538h-40.2a40.292,40.292,0,0,1-5.053,5.538c-8.594,7.814-18.262,20.515-18.262,38.108,0,12.068,6.192,22.913,13.857,31.714a11.009,11.009,0,0,0,8.3,3.771h42.511a11.01,11.01,0,0,0,8.3-3.771c7.665-8.8,13.857-19.646,13.857-31.714,0-17.593-9.668-30.294-18.262-38.108Z" transform="translate(-131.056 -163.178)" fill="#ffaa5c"/>
      <path id="Path_2759" data-name="Path 2759" d="M377.182,230.961a40.312,40.312,0,0,1-5.053-5.538h-7.7a40.294,40.294,0,0,0,5.053,5.538c8.594,7.814,18.262,20.515,18.262,38.108,0,12.068-6.192,22.913-13.857,31.714a11.008,11.008,0,0,1-8.3,3.771h7.7a11.009,11.009,0,0,0,8.3-3.771c7.665-8.8,13.857-19.646,13.857-31.714,0-17.593-9.668-30.294-18.262-38.108Z" transform="translate(-277.402 -163.178)" fill="#ff9838"/>
      <ellipse id="Ellipse_49" data-name="Ellipse 49" cx="13.184" cy="17.845" rx="13.184" ry="17.845" transform="translate(9.974 105.686)" fill="#348021"/>
      <ellipse id="Ellipse_50" data-name="Ellipse 50" cx="17.839" cy="13.188" rx="17.839" ry="13.188" transform="translate(-18.785 134.288) rotate(-63.461)" fill="#348021"/>
      <path id="Path_2760" data-name="Path 2760" d="M29.793,389.706a11.859,11.859,0,0,0-2.256-.858c3.42,4.2,3.943,10.976,0,18.844-4.543,9.065-11.47,12.506-17.52,10.881a11.548,11.548,0,0,0,3.79,3.028c6.507,3.272,14.655.193,19.775-10.023S36.3,392.979,29.793,389.706Z" transform="translate(-20.849 -281.478)" fill="#2e701b"/>
      <path id="Path_2761" data-name="Path 2761" d="M123.025,382.75a11.633,11.633,0,0,0-3.848.644c5.4,1.887,9.336,7.872,9.336,17.2s-3.932,15.314-9.336,17.2a11.633,11.633,0,0,0,3.848.644c7.281,0,13.184-6.414,13.184-17.845S130.306,382.75,123.025,382.75Z" transform="translate(-99.867 -277.064)" fill="#2e701b"/>
      <g id="Group_2969" data-name="Group 2969" transform="translate(-8.201 128.933)">
        <path id="Path_2762" data-name="Path 2762" d="M25.842,474.67a3.2,3.2,0,0,0,2.959-1.623c.9-1.806-.3-3.992-2.939-5.316-1.844-.927-4.884-1.448-6.02.818-.9,1.806.3,3.992,2.939,5.317A6.955,6.955,0,0,0,25.842,474.67Z" transform="translate(-19.545 -466.939)" fill="#255616"/>
        <path id="Path_2763" data-name="Path 2763" d="M119.734,469.8c-2.951,0-5.011,1.412-5.011,3.433s2.061,3.433,5.011,3.433,5.011-1.412,5.011-3.433S122.685,469.8,119.734,469.8Z" transform="translate(-88.442 -469.012)" fill="#255616"/>
      </g>
    </g>
  </g>
</svg>
