<svg xmlns="http://www.w3.org/2000/svg" width="17.713" height="17.713" viewBox="0 0 17.713 17.713">
  <g id="Solid" transform="translate(17.713 17.713) rotate(180)">
    <path id="Path_2782" data-name="Path 2782" d="M13.78,3.724,10.325.268a.916.916,0,0,0-1.3,1.3L10.92,3.455h-10a.916.916,0,0,0,0,1.832h10L9.029,7.179a.916.916,0,0,0,1.3,1.3L13.78,5.019A.916.916,0,0,0,13.78,3.724Z" transform="translate(3.665 4.485)" fill="#ff543e"/>
    <path id="Path_2783" data-name="Path 2783" d="M10.689,14.049a.916.916,0,0,0-.916.916v.916H1.832V1.832h7.94v.916a.916.916,0,1,0,1.832,0V1.527A1.527,1.527,0,0,0,10.078,0H1.527A1.527,1.527,0,0,0,0,1.527V16.186a1.527,1.527,0,0,0,1.527,1.527h8.551a1.527,1.527,0,0,0,1.527-1.527V14.965A.916.916,0,0,0,10.689,14.049Z" fill="#ff543e"/>
  </g>
</svg>
