<svg xmlns="http://www.w3.org/2000/svg" xmlns:xlink="http://www.w3.org/1999/xlink" width="266.643" height="170.092" viewBox="0 0 266.643 170.092">
  <defs>
    <linearGradient id="linear-gradient" x1="3.973" y1="0.075" x2="5.053" y2="0.72" gradientUnits="objectBoundingBox">
      <stop offset="0" stop-color="#ffd555"/>
      <stop offset="0.265" stop-color="#ffcf51"/>
      <stop offset="0.608" stop-color="#ffbf45"/>
      <stop offset="0.992" stop-color="#ffa433"/>
      <stop offset="1" stop-color="#ffa433"/>
    </linearGradient>
    <linearGradient id="linear-gradient-2" x1="8.726" y1="0.781" x2="12.671" y2="0.225" gradientUnits="objectBoundingBox">
      <stop offset="0" stop-color="#c2c8cb"/>
      <stop offset="0.342" stop-color="#d3d7d9"/>
      <stop offset="1" stop-color="#fff"/>
    </linearGradient>
    <linearGradient id="linear-gradient-3" x1="3.715" y1="0.5" x2="4.715" y2="0.5" gradientUnits="objectBoundingBox">
      <stop offset="0" stop-color="#bfdbef"/>
      <stop offset="0.354" stop-color="#c6e3f2"/>
      <stop offset="0.922" stop-color="#dafbfd"/>
      <stop offset="1" stop-color="#deffff"/>
    </linearGradient>
    <linearGradient id="linear-gradient-4" x1="5.309" y1="-1.056" x2="4.905" y2="2.181" gradientUnits="objectBoundingBox">
      <stop offset="0" stop-color="#fff" stop-opacity="0"/>
      <stop offset="0.12" stop-color="#fff" stop-opacity="0.094"/>
      <stop offset="0.374" stop-color="#fff" stop-opacity="0.329"/>
      <stop offset="0.736" stop-color="#fff" stop-opacity="0.71"/>
      <stop offset="1" stop-color="#fff"/>
    </linearGradient>
    <linearGradient id="linear-gradient-5" x1="6.45" y1="-2.983" x2="5.958" y2="2.165" xlink:href="#linear-gradient-4"/>
    <linearGradient id="linear-gradient-6" x1="5.592" y1="-0.044" x2="5.173" y2="3.948" xlink:href="#linear-gradient-4"/>
    <linearGradient id="linear-gradient-7" x1="8.877" y1="0.162" x2="9.278" y2="0.682" gradientUnits="objectBoundingBox">
      <stop offset="0" stop-color="#c6e389"/>
      <stop offset="0.454" stop-color="#aed776"/>
      <stop offset="1" stop-color="#8dc65d"/>
    </linearGradient>
  </defs>
  <g id="Group_2966" data-name="Group 2966" transform="translate(-61.516 -102.077)">
    <g id="Group_2929" data-name="Group 2929" transform="translate(61.516 77.239)">
      <path id="Path_2626" data-name="Path 2626" d="M538.883,334.408c2.741,1.715,5.349,4.023,6.253,7.127,1.385,4.755-2.083,10.092-6.823,11.525s-10.095-.589-13.421-4.258c-4.323-4.768-4.192-10.606.619-14.85C529.5,330.431,534.605,331.733,538.883,334.408Z" transform="translate(-278.8 -197.422)" fill="#fff" opacity="0.4" style="mix-blend-mode: soft-light;isolation: isolate"/>
      <path id="Path_2628" data-name="Path 2628" d="M73.221,322.188a9.213,9.213,0,0,1,4.277,4.875c.947,3.252-1.425,6.9-4.667,7.883a9.22,9.22,0,0,1-9.18-2.912c-2.956-3.261-2.867-7.254.424-10.157C66.8,319.467,70.294,320.358,73.221,322.188Z" transform="translate(-61.516 -192.04)" fill="#fff" opacity="0.4" style="mix-blend-mode: soft-light;isolation: isolate"/>
    </g>
    <g id="Group_2965" data-name="Group 2965" transform="translate(81.617 102.077)">
      <g id="Group_2933" data-name="Group 2933" transform="translate(10.575)">
        <g id="Group_2930" data-name="Group 2930" transform="translate(9.248 6.032)">
          <path id="Path_2629" data-name="Path 2629" d="M140.321,135.757a1.823,1.823,0,0,0-1.374.243,3.065,3.065,0,0,0-1.053,1.228,6.746,6.746,0,0,0-.625,2.022,11.337,11.337,0,0,0-.09,2.617L148.012,287.18a12.318,12.318,0,0,0,.488,2.673,8.041,8.041,0,0,0,.939,2.067,3.894,3.894,0,0,0,1.251,1.257,1.972,1.972,0,0,0,1.426.251l31.42-6.759a2.037,2.037,0,0,0,1.113-.746,5.107,5.107,0,0,0,.829-1.553,9.812,9.812,0,0,0,.472-2.134,13.118,13.118,0,0,0,.04-2.5L175.909,149.228a13.4,13.4,0,0,0-.42-2.451,10.867,10.867,0,0,0-.792-2.094,6.135,6.135,0,0,0-1.058-1.524,2.472,2.472,0,0,0-1.215-.733l-6.517-1.354a.886.886,0,0,0-.7.144,1.679,1.679,0,0,0-.533.684,3.946,3.946,0,0,0-.31,1.116,6.743,6.743,0,0,0-.035,1.439,6.785,6.785,0,0,1-.035,1.443,4,4,0,0,1-.311,1.124,1.723,1.723,0,0,1-.538.7.914.914,0,0,1-.715.16l-10.261-1.917a1.638,1.638,0,0,1-.807-.453,3.821,3.821,0,0,1-.706-.96,6.573,6.573,0,0,1-.528-1.329,7.98,7.98,0,0,1-.275-1.558,7.975,7.975,0,0,0-.275-1.561,6.668,6.668,0,0,0-.531-1.338,3.942,3.942,0,0,0-.713-.976,1.719,1.719,0,0,0-.822-.475Z" transform="translate(-137.143 -135.715)" fill="url(#linear-gradient)"/>
        </g>
        <path id="Path_2630" data-name="Path 2630" d="M119.631,134.74c0-.049,0-.1,0-.146,0-.082,0-.166.006-.247q.011-.281.029-.555c0-.044.007-.087.011-.131s.007-.087.011-.13c.007-.094.014-.188.023-.281.005-.058.011-.117.017-.174s.012-.116.018-.174.013-.115.021-.172.012-.093.017-.14v-.007l0-.024c.006-.049.013-.1.02-.145s.014-.1.021-.144.014-.1.022-.143.015-.094.023-.141.015-.093.023-.139.016-.092.025-.137c.006-.03.011-.059.017-.088v-.008l.008-.041c.008-.045.017-.09.026-.135s.02-.094.03-.14.02-.093.03-.139.021-.092.031-.138.021-.091.032-.137.024-.1.036-.144l.007-.03,0-.009.027-.1.038-.141c.013-.046.026-.093.039-.139s.029-.1.044-.149.03-.1.045-.148.031-.1.046-.146l.006-.018,0-.006c.013-.04.026-.08.04-.12s.032-.094.049-.14.033-.093.051-.139.034-.091.051-.137.035-.09.053-.135.031-.077.046-.115v0l0-.011c.017-.043.035-.085.053-.127l.055-.125c.018-.042.037-.082.055-.123l.054-.115.055-.113c.017-.036.035-.071.053-.106h0l0,0,.057-.11.053-.1.054-.1.055-.1q.027-.047.055-.093l.054-.089.038-.061,0,0,.014-.022.055-.086.057-.084.054-.079.055-.078.056-.076.056-.074.055-.07,0-.005,0,0,.05-.062.056-.068.056-.067.056-.064.056-.062.056-.061.057-.06.056-.057.056-.055.057-.054.057-.053.058-.051.058-.05.059-.049.059-.048.058-.045.01-.007,0,0,.047-.035.059-.044.06-.042.06-.041L123,126l.061-.038.061-.037.062-.036.031-.017,0,0,.028-.016.063-.033.063-.032.064-.031.064-.03.065-.029.065-.027.068-.027.048-.017,0,0,.016-.006.068-.024.069-.022.07-.021.071-.02.071-.018.071-.016.03-.007.03-.006.03-.006.03-.006,5.883-1.078a3.333,3.333,0,0,0-.551.15h0a3.556,3.556,0,0,0-.522.242l0,0a4.036,4.036,0,0,0-.5.33l0,0a4.805,4.805,0,0,0-.467.417h0a5.639,5.639,0,0,0-.437.5v0a6.638,6.638,0,0,0-.4.576l0,.005q-.191.307-.364.65v0q-.173.344-.326.722l0,0q-.153.378-.285.788l0,.006q-.131.409-.242.849l0,.01q-.109.439-.2.906l0,.011q-.087.468-.15.963v.008c-.039.307-.07.622-.094.943,0,.044-.007.088-.01.132q-.032.46-.044.938c0,.049,0,.1,0,.147-.006.342-.006.689,0,1.044v.007q.015.566.059,1.151L136.53,282.464h0q.048.642.125,1.264v0q.078.619.183,1.215v0q.105.594.237,1.162l0,.007q.131.567.288,1.1l0,.006q.156.537.335,1.043l0,0q.179.505.38.975l0,.007q.2.47.42.9l0,0q.22.435.459.83h0q.238.394.493.746l0,0q.252.349.519.656l.007.008a7.389,7.389,0,0,0,.541.56l.015.014a6.209,6.209,0,0,0,.561.462q.157.114.316.213c.029.018.058.033.087.05.079.047.158.093.238.135.04.021.081.039.121.058.07.034.14.066.211.1l.131.051c.068.026.137.05.205.071l.135.041c.07.019.14.036.211.051.043.009.087.02.13.027.077.014.155.023.232.032.037,0,.074.01.111.013a3.428,3.428,0,0,0,.345.011l-6.018.133c-.117,0-.233,0-.348-.01-.038,0-.075-.009-.113-.013-.078-.008-.156-.017-.233-.031l-.043-.006c-.03-.005-.059-.015-.089-.021-.071-.015-.143-.031-.213-.051l-.136-.04c-.069-.022-.138-.045-.207-.071-.026-.01-.053-.017-.079-.027s-.036-.017-.055-.024c-.071-.029-.141-.061-.212-.095-.041-.02-.081-.037-.122-.059-.081-.041-.161-.087-.241-.134-.025-.014-.05-.026-.074-.041l-.013-.008c-.105-.064-.21-.132-.313-.206l-.006,0q-.176-.126-.348-.269c-.047-.039-.094-.079-.14-.12l-.078-.071-.015-.014-.045-.041c-.046-.043-.092-.087-.137-.132s-.091-.09-.136-.137-.07-.072-.1-.11l-.1-.113-.021-.024-.007-.008-.074-.084c-.034-.04-.068-.079-.1-.12l-.087-.106-.086-.109c-.029-.036-.057-.073-.085-.111l-.084-.113-.006-.008,0,0-.068-.094-.076-.108-.075-.11-.074-.111-.067-.1-.067-.106-.066-.107,0,0h0l-.063-.1-.061-.1-.06-.1-.06-.106-.059-.107-.057-.106c-.019-.035-.038-.071-.056-.107l-.045-.087,0,0-.009-.017-.055-.109-.051-.1-.051-.105-.051-.106-.05-.107-.049-.107-.048-.108-.048-.109-.012-.027,0-.006-.033-.077-.045-.107-.044-.108c-.015-.036-.03-.072-.044-.109l-.043-.109c-.014-.036-.029-.073-.042-.11l-.042-.11-.041-.111-.041-.112-.006-.018,0,0-.031-.088-.039-.111-.038-.112c-.013-.037-.025-.075-.037-.112l-.037-.112c-.012-.038-.024-.075-.036-.112l-.035-.113-.035-.114c-.012-.037-.023-.074-.034-.111l-.015-.05V287.4l-.016-.055-.032-.112-.032-.113c-.011-.037-.021-.074-.031-.112s-.021-.075-.03-.112-.02-.075-.03-.113-.02-.075-.03-.113-.018-.071-.026-.107-.018-.072-.026-.108l-.026-.108-.01-.044,0-.006-.014-.058-.025-.109-.024-.109-.024-.11-.024-.111c-.007-.033-.014-.065-.02-.1l-.02-.1c-.007-.033-.013-.066-.02-.1s-.013-.066-.02-.1-.013-.067-.018-.1-.013-.067-.018-.1l-.011-.062v0l-.006-.035c-.006-.034-.012-.068-.018-.1s-.011-.064-.016-.1l-.016-.1c-.005-.032-.011-.064-.015-.1s-.011-.065-.015-.1l-.014-.092c0-.031-.009-.061-.014-.092s-.009-.062-.013-.092-.009-.062-.013-.092l-.013-.093-.012-.093-.012-.093-.005-.039v0l-.006-.052c0-.031-.008-.062-.012-.093s-.007-.062-.011-.093l-.011-.093c0-.031-.007-.062-.011-.093s-.006-.062-.01-.093l-.01-.094c0-.031-.006-.062-.009-.094l-.009-.094c0-.032-.006-.063-.008-.095l-.008-.094-.007-.1c0-.032-.005-.063-.007-.1l0-.02,0-.02,0-.019,0-.02L119.69,136.93c0-.03,0-.061-.007-.091l-.006-.091c0-.031,0-.061-.006-.091s0-.06-.005-.09l-.006-.113c0-.037,0-.075-.006-.112s0-.075-.005-.112,0-.075,0-.112c0-.053,0-.105-.006-.157s0-.1,0-.157v-.024l0-.132c0-.052,0-.1,0-.155,0-.194,0-.387,0-.578C119.627,134.856,119.629,134.8,119.631,134.74Z" transform="translate(-119.624 -124.338)" fill="url(#linear-gradient-2)"/>
        <g id="Group_2931" data-name="Group 2931" transform="translate(5.945)">
          <path id="Path_2631" data-name="Path 2631" d="M169.048,131.553a4.728,4.728,0,0,1,2.278,1.406,11.7,11.7,0,0,1,1.973,2.872,20.534,20.534,0,0,1,1.474,3.92,25.159,25.159,0,0,1,.781,4.575l10.029,129.519a24.792,24.792,0,0,1-.07,4.661,18.622,18.622,0,0,1-.873,4,9.735,9.735,0,0,1-1.544,2.93,3.886,3.886,0,0,1-2.083,1.433l-31.394,7.286a3.678,3.678,0,0,1-2.689-.429,7.218,7.218,0,0,1-2.372-2.344,15.036,15.036,0,0,1-1.785-3.9,23.091,23.091,0,0,1-.928-5.066L130.953,135.852a21.361,21.361,0,0,1,.176-4.959,12.581,12.581,0,0,1,1.2-3.811,5.685,5.685,0,0,1,2-2.286,3.437,3.437,0,0,1,2.594-.415Zm-23.99,150.232a12.306,12.306,0,0,0,.488,2.673,8.045,8.045,0,0,0,.939,2.068,3.892,3.892,0,0,0,1.251,1.257,1.967,1.967,0,0,0,1.426.251l31.42-6.759a2.034,2.034,0,0,0,1.113-.745,5.106,5.106,0,0,0,.829-1.553,9.81,9.81,0,0,0,.472-2.134,13.163,13.163,0,0,0,.04-2.5L172.955,143.833a13.4,13.4,0,0,0-.42-2.451,10.87,10.87,0,0,0-.792-2.094,6.139,6.139,0,0,0-1.057-1.524,2.476,2.476,0,0,0-1.215-.733l-6.518-1.354a.884.884,0,0,0-.7.144,1.677,1.677,0,0,0-.533.684,3.948,3.948,0,0,0-.31,1.117,6.761,6.761,0,0,0-.035,1.441,6.728,6.728,0,0,1-.035,1.441,3.957,3.957,0,0,1-.311,1.123,1.722,1.722,0,0,1-.538.7.914.914,0,0,1-.715.159l-10.26-1.916a1.635,1.635,0,0,1-.807-.454,3.812,3.812,0,0,1-.706-.96,6.608,6.608,0,0,1-.529-1.33,7.988,7.988,0,0,1-.275-1.56,8,8,0,0,0-.275-1.559,6.664,6.664,0,0,0-.531-1.336,3.938,3.938,0,0,0-.713-.976,1.722,1.722,0,0,0-.822-.475l-7.487-1.556a1.823,1.823,0,0,0-1.374.243,3.065,3.065,0,0,0-1.053,1.228,6.741,6.741,0,0,0-.625,2.022,11.337,11.337,0,0,0-.09,2.617l10.833,145.312" transform="translate(-130.886 -124.289)" fill="url(#linear-gradient-3)"/>
        </g>
        <g id="Group_2932" data-name="Group 2932" transform="translate(9.248 6.032)" style="mix-blend-mode: overlay;isolation: isolate">
          <path id="Path_2632" data-name="Path 2632" d="M188.783,322.812,147.344,283.3l-1.809-24.26L186.9,298.484Z" transform="translate(-141.105 -193.936)" fill="url(#linear-gradient-4)"/>
          <path id="Path_2633" data-name="Path 2633" d="M188.45,392.44l-28.868,6.21a1.973,1.973,0,0,1-1.426-.251,3.9,3.9,0,0,1-1.251-1.257,8.036,8.036,0,0,1-.939-2.068,12.307,12.307,0,0,1-.488-2.672l-2.52-33.8Z" transform="translate(-144.609 -240.937)" fill="url(#linear-gradient-5)"/>
          <path id="Path_2634" data-name="Path 2634" d="M137.645,148.128l-.467-6.26a11.337,11.337,0,0,1,.09-2.617,6.746,6.746,0,0,1,.625-2.022A3.065,3.065,0,0,1,138.947,136a1.823,1.823,0,0,1,1.374-.243l7.487,1.555a1.719,1.719,0,0,1,.822.475,3.942,3.942,0,0,1,.713.976,6.668,6.668,0,0,1,.531,1.338,7.975,7.975,0,0,1,.275,1.561,7.967,7.967,0,0,0,.275,1.558,6.566,6.566,0,0,0,.528,1.329,3.821,3.821,0,0,0,.706.96,1.638,1.638,0,0,0,.807.453l10.261,1.917a.914.914,0,0,0,.715-.16,1.723,1.723,0,0,0,.538-.7,4,4,0,0,0,.311-1.124,6.785,6.785,0,0,0,.035-1.443,6.743,6.743,0,0,1,.035-1.439,3.946,3.946,0,0,1,.31-1.116,1.679,1.679,0,0,1,.533-.684.886.886,0,0,1,.7-.144l6.517,1.354a2.472,2.472,0,0,1,1.215.733,6.135,6.135,0,0,1,1.058,1.524,10.867,10.867,0,0,1,.792,2.094,13.4,13.4,0,0,1,.42,2.451l2.95,38.2Z" transform="translate(-137.143 -135.715)" fill="url(#linear-gradient-6)"/>
        </g>
      </g>
      <g id="Group_2936" data-name="Group 2936" transform="translate(31.24 40.084)">
        <path id="Path_2635" data-name="Path 2635" d="M158.775,216.113c.138,1.461,2.823,2.214,3.27,3.471.46,1.29-.994,3.825-.234,4.889s3.244.091,4.161.839c.9.732.8,3.5,1.839,3.876,1,.36,2.559-1.75,3.585-1.7.964.045,1.913,2.15,2.873,1.844.933-.3,1.4-2.734,2.191-3.253s2.266.525,2.893-.213.175-2.873.646-3.755c.462-.866,1.995-.872,2.267-1.839.264-.942-.808-2.443-.715-3.48.089-1,1.369-1.926,1.271-2.954s-1.528-1.7-1.8-2.663c-.286-1,.486-2.678.049-3.553-.449-.9-1.955-.617-2.571-1.38s-.591-2.965-1.339-3.568-2,.7-2.882.334-1.79-2.668-2.763-2.784c-1-.12-1.538,2.125-2.476,2.35-1,.24-2.927-1.54-3.841-1-.952.564-.335,3.265-1.079,4.152-.761.907-3.385.421-3.931,1.606s1.357,3.4,1.148,4.757C161.132,213.41,158.637,214.652,158.775,216.113Z" transform="translate(-158.77 -200.219)" fill="url(#linear-gradient-7)"/>
        <g id="Group_2934" data-name="Group 2934" transform="translate(1.783 1.554)">
          <path id="Path_2636" data-name="Path 2636" d="M174.233,228.307c-.362-.383-.74-.782-1.079-.805a2.707,2.707,0,0,0-1.344.688c-.622.452-1.278.93-1.815.722-.555-.214-.771-1.052-.981-1.866a3.347,3.347,0,0,0-.648-1.557,2.62,2.62,0,0,0-1.547-.257c-.8.007-1.643.014-2.045-.563a3.266,3.266,0,0,1,.01-2.389,4,4,0,0,0,.158-1.881c-.153-.434-.7-.828-1.234-1.214-.721-.519-1.479-1.065-1.553-1.85s.568-1.464,1.178-2.109a3.308,3.308,0,0,0,.984-1.423,3.993,3.993,0,0,0-.508-1.818c-.363-.837-.742-1.708-.458-2.345s1.118-.793,1.9-.937a2.619,2.619,0,0,0,1.471-.543,3.353,3.353,0,0,0,.344-1.65c.053-.839.108-1.7.613-2.018.489-.3,1.223.041,1.918.368a2.7,2.7,0,0,0,1.449.423c.33-.086.626-.549.909-.993.372-.583.752-1.178,1.3-1.124s1.017.713,1.475,1.345a3.325,3.325,0,0,0,1,1.075,1.731,1.731,0,0,0,1.161-.222c.507-.212,1.024-.427,1.439-.1a3.265,3.265,0,0,1,.745,1.783,3.9,3.9,0,0,0,.48,1.4,1.974,1.974,0,0,0,1.053.483,1.735,1.735,0,0,1,1.285.755,3.114,3.114,0,0,1,.032,1.8,3.706,3.706,0,0,0-.065,1.417,2.748,2.748,0,0,0,.746,1,1.863,1.863,0,0,1,.282,2.983,2.757,2.757,0,0,0-.545,1.118,3.7,3.7,0,0,0,.329,1.38,3.107,3.107,0,0,1,.305,1.771c-.153.533-.641.76-1.12.982a1.97,1.97,0,0,0-.943.672,3.9,3.9,0,0,0-.209,1.466,3.262,3.262,0,0,1-.4,1.892c-.346.4-.894.282-1.433.169a1.719,1.719,0,0,0-1.181,0,3.333,3.333,0,0,0-.781,1.243c-.332.706-.679,1.446-1.2,1.6S174.707,228.809,174.233,228.307Zm4.7-2.339c.477.1.963.208,1.216-.079a3.062,3.062,0,0,0,.3-1.624,4.125,4.125,0,0,1,.264-1.671,2.118,2.118,0,0,1,1.07-.79c.428-.2.864-.4.977-.786a2.874,2.874,0,0,0-.3-1.494,3.956,3.956,0,0,1-.357-1.583,2.966,2.966,0,0,1,.61-1.3,1.487,1.487,0,0,0-.235-2.484,2.963,2.963,0,0,1-.842-1.161,3.95,3.95,0,0,1,.053-1.622,2.875,2.875,0,0,0,.012-1.524c-.184-.362-.649-.476-1.106-.589a2.124,2.124,0,0,1-1.2-.576,4.118,4.118,0,0,1-.572-1.592,3.069,3.069,0,0,0-.6-1.539c-.3-.233-.76-.04-1.21.151a1.842,1.842,0,0,1-1.327.227,3.482,3.482,0,0,1-1.164-1.2c-.411-.563-.84-1.152-1.235-1.189s-.737.494-1.066,1.014c-.309.487-.631,1-1.056,1.109a2.843,2.843,0,0,1-1.65-.439c-.619-.288-1.27-.591-1.624-.37s-.413,1-.46,1.741a3.538,3.538,0,0,1-.422,1.861,2.78,2.78,0,0,1-1.654.662c-.7.131-1.433.27-1.64.737s.13,1.229.45,1.97a4.251,4.251,0,0,1,.538,2.066,3.534,3.534,0,0,1-1.084,1.649c-.54.574-1.106,1.178-1.052,1.753s.724,1.061,1.362,1.525a3.537,3.537,0,0,1,1.374,1.416,4.244,4.244,0,0,1-.141,2.131c-.176.787-.358,1.606-.073,2.019s1.039.418,1.749.416a2.782,2.782,0,0,1,1.748.34,3.537,3.537,0,0,1,.764,1.749c.185.722.375,1.465.778,1.622s.972-.268,1.526-.668a2.843,2.843,0,0,1,1.538-.74c.439.032.851.471,1.246.891.421.449.851.907,1.237.8s.693-.769.991-1.4a3.478,3.478,0,0,1,.918-1.4.88.88,0,0,1,.252-.106A2.511,2.511,0,0,1,178.937,225.968Z" transform="translate(-162.148 -203.164)" fill="#fff"/>
        </g>
        <g id="Group_2935" data-name="Group 2935" transform="translate(7.578 8.96)">
          <path id="Path_2637" data-name="Path 2637" d="M179.073,227.657a.978.978,0,0,1-.843-.147l-4.552-3.309a1.341,1.341,0,0,1-.217-1.977,1.439,1.439,0,0,1,1.984-.194l3.218,2.606,4.065-7.088a.69.69,0,0,1,1.143-.1,1.284,1.284,0,0,1,.258,1.428L179.857,227a1.307,1.307,0,0,1-.734.642Z" transform="translate(-173.124 -217.192)" fill="#fff"/>
        </g>
      </g>
      <g id="Group_2964" data-name="Group 2964" transform="translate(0 22.607)">
        <g id="Group_2960" data-name="Group 2960" transform="translate(57.741)">
          <g id="Group_2937" data-name="Group 2937" transform="translate(57.715 23.01)">
            <path id="Path_2639" data-name="Path 2639" d="M330.041,214.279l-2.326,8.749-9.416-4.375,3.108-7.953Z" transform="translate(-318.299 -210.701)" fill="#ffbca9"/>
            <path id="Path_2640" data-name="Path 2640" d="M319.141,218.411a3.875,3.875,0,0,0-.72.078l3.044-7.788,8.634,3.578-.6,2.27C329.224,216.565,320.591,218.389,319.141,218.411Z" transform="translate(-318.356 -210.701)" fill="#ffbca9" opacity="0.6" style="mix-blend-mode: multiply;isolation: isolate"/>
          </g>
          <path id="Path_2641" data-name="Path 2641" d="M341.286,183.023s7.164,11.242.992,16.793c-6.288,5.656-16.189,1.4-16.189,1.4L323.1,186.937Z" transform="translate(-262.849 -174.624)" fill="#ffbca9"/>
          <path id="Path_2642" data-name="Path 2642" d="M338.56,179.049l1.3,2.977s-10.853,1.973-12.234,3.93-3.8,12.779-3.8,12.779-5.526-4.95-5.526-8.865.115-7.828,2.072-9.325S337.263,176.072,338.56,179.049Z" transform="translate(-260.584 -172.147)" fill="#61554c"/>
          <path id="Path_2643" data-name="Path 2643" d="M338.648,174.539s12.579-1.7,13.011-.754,1.382,2.072-1.813,3.626-9.226,1.475-9.226,1.475-14.676,4.738-22.412,3.013a83.773,83.773,0,0,1,0-11.137c.242-1.878,15.841-4.71,16.963-3.243S338.648,174.539,338.648,174.539Z" transform="translate(-260.443 -167.113)" fill="#ffc948"/>
          <path id="Path_2644" data-name="Path 2644" d="M334.278,182.011c3.164-2.173,6.71-5.794,7.585-9.807,1.061,2.116,2.173,4.738,2.173,4.738l.3-.039c.185.4.365.8.538,1.2.458,1.069.907,2.137,1.387,3.186h-.249s-8.981,2.9-16.595,3.336A28.184,28.184,0,0,0,334.278,182.011Z" transform="translate(-265.831 -169.516)" fill="#ffc948" style="mix-blend-mode: multiply;isolation: isolate"/>
          <g id="Group_2938" data-name="Group 2938" transform="translate(57.684 6.389)" style="mix-blend-mode: multiply;isolation: isolate">
            <path id="Path_2645" data-name="Path 2645" d="M338.9,182.764s6.031.079,9.226-1.475c1.629-.792,2.178-1.472,2.27-2.074.781.02,1.3.1,1.379.283.432.95,1.382,2.072-1.813,3.626s-9.226,1.475-9.226,1.475-14.676,4.738-22.412,3.013c0,0-.037-.61-.081-1.565C326.242,186.847,338.9,182.764,338.9,182.764Z" transform="translate(-318.241 -179.215)" fill="#ffc948"/>
          </g>
          <g id="Group_2939" data-name="Group 2939" transform="translate(86.487 107.452)">
            <path id="Path_2646" data-name="Path 2646" d="M385.439,375.359H372.8l.564-4.082,3.867-.619a50.8,50.8,0,0,1,8.535,3.561A.617.617,0,0,1,385.439,375.359Z" transform="translate(-372.802 -370.658)" fill="#333831"/>
            <path id="Path_2647" data-name="Path 2647" d="M378.406,373.1a16.989,16.989,0,0,0,4.636,2.425H372.8l.564-4.082,2.7-.432A14.463,14.463,0,0,0,378.406,373.1Z" transform="translate(-372.802 -370.825)" fill="#333831" opacity="0.5" style="mix-blend-mode: multiply;isolation: isolate"/>
          </g>
          <path id="Rectangle_15" data-name="Rectangle 15" d="M3.607,0h.514a0,0,0,0,1,0,0V12.363a0,0,0,0,1,0,0H3.607A3.607,3.607,0,0,1,0,8.756V3.607A3.607,3.607,0,0,1,3.607,0Z" transform="translate(118.032 59.859) rotate(180)" fill="#fff78c"/>
          <path id="Path_2648" data-name="Path 2648" d="M415.241,257.084l-10.635,3.372v5.62l10.635,3.372Z" transform="translate(-301.33 -209.588)" fill="#ff6e28"/>
          <path id="Path_2649" data-name="Path 2649" d="M409.725,260.4c.073.564.15,1.128.243,1.688a20.892,20.892,0,0,0,2.259,6.729c.287.524.6,1.033.922,1.534l-8.544-2.709v-5.62Z" transform="translate(-301.33 -211.152)" fill="#bd4113"/>
          <path id="Path_2650" data-name="Path 2650" d="M409.611,302.407l5.594-.449a3.713,3.713,0,0,0,3.4-4h0a3.713,3.713,0,0,0-4-3.4l-5.594.449Z" transform="translate(-303.412 -227.273)" fill="#ffbf51"/>
          <path id="Path_2651" data-name="Path 2651" d="M248.367,345.732l-5.21-2.087a3.712,3.712,0,0,0-4.827,2.066h0a3.713,3.713,0,0,0,2.066,4.827l5.21,2.087Z" transform="translate(-222.705 -250.327)" fill="#ffbf51"/>
          <g id="Group_2940" data-name="Group 2940" transform="translate(106.752 99.128)">
            <circle id="Ellipse_36" data-name="Ellipse 36" cx="16.381" cy="16.381" r="16.381" transform="translate(2.382 2.382)" fill="#4b474c"/>
            <circle id="Ellipse_37" data-name="Ellipse 37" cx="16.381" cy="16.381" r="16.381" transform="translate(2.382 2.382)" fill="#4b474c" opacity="0.3" style="mix-blend-mode: multiply;isolation: isolate"/>
            <circle id="Ellipse_38" data-name="Ellipse 38" cx="15.227" cy="15.227" r="15.227" transform="translate(0 8.195) rotate(-15.611)" fill="#4b474c"/>
            <circle id="Ellipse_39" data-name="Ellipse 39" cx="10.844" cy="10.844" r="10.844" transform="translate(6.332 9.784) rotate(-9.158)" fill="#4b474c" opacity="0.3" style="mix-blend-mode: multiply;isolation: isolate"/>
            <circle id="Ellipse_40" data-name="Ellipse 40" cx="8.088" cy="8.088" r="8.088" transform="translate(9.042 12.735) rotate(-13.194)" fill="#4b474c" opacity="0.3" style="mix-blend-mode: multiply;isolation: isolate"/>
            <circle id="Ellipse_41" data-name="Ellipse 41" cx="5.826" cy="5.826" r="5.826" transform="matrix(0.385, -0.923, 0.923, 0.385, 11.142, 21.895)" fill="#a6a9af"/>
            <path id="Path_2652" data-name="Path 2652" d="M439.5,383.1a4.82,4.82,0,0,0,6.708,6.708A4.821,4.821,0,1,1,439.5,383.1Z" transform="translate(-423.576 -368.207)" fill="#a6a9af" style="mix-blend-mode: screen;isolation: isolate"/>
          </g>
          <g id="Group_2941" data-name="Group 2941" transform="translate(24.696 96.356)">
            <circle id="Ellipse_42" data-name="Ellipse 42" cx="16.381" cy="16.381" r="16.381" transform="translate(5.154 5.154)" fill="#4b474c"/>
            <circle id="Ellipse_43" data-name="Ellipse 43" cx="16.381" cy="16.381" r="16.381" transform="translate(5.154 5.154)" fill="#4b474c" opacity="0.3" style="mix-blend-mode: multiply;isolation: isolate"/>
            <circle id="Ellipse_44" data-name="Ellipse 44" cx="15.227" cy="15.227" r="15.227" transform="translate(0 21.535) rotate(-45)" fill="#4b474c"/>
            <circle id="Ellipse_45" data-name="Ellipse 45" cx="10.844" cy="10.844" r="10.844" transform="translate(6.199 21.535) rotate(-45)" fill="#4b474c" opacity="0.3" style="mix-blend-mode: multiply;isolation: isolate"/>
            <circle id="Ellipse_46" data-name="Ellipse 46" cx="8.088" cy="8.088" r="8.088" transform="matrix(0.619, -0.785, 0.785, 0.619, 10.175, 22.878)" fill="#4b474c" opacity="0.3" style="mix-blend-mode: multiply;isolation: isolate"/>
            <circle id="Ellipse_47" data-name="Ellipse 47" cx="5.826" cy="5.826" r="5.826" transform="translate(13.295 21.535) rotate(-45)" fill="#a6a9af"/>
            <path id="Path_2653" data-name="Path 2653" d="M289.315,383.1a4.82,4.82,0,0,0,6.708,6.708,4.821,4.821,0,1,1-6.708-6.708Z" transform="translate(-270.617 -365.436)" fill="#a6a9af" style="mix-blend-mode: screen;isolation: isolate"/>
          </g>
          <path id="Rectangle_16" data-name="Rectangle 16" d="M0,0H31.766a0,0,0,0,1,0,0V3.6a8.49,8.49,0,0,1-8.49,8.49H0a0,0,0,0,1,0,0V0A0,0,0,0,1,0,0Z" transform="translate(56.287 94.396) rotate(180)" fill="#6e3313"/>
          <g id="Group_2942" data-name="Group 2942" transform="translate(0 63.376)">
            <rect id="Rectangle_17" data-name="Rectangle 17" width="37.619" height="5.125" transform="translate(37.619 5.125) rotate(180)" fill="#6e3313"/>
            <rect id="Rectangle_18" data-name="Rectangle 18" width="37.619" height="3.105" transform="translate(37.619 3.105) rotate(180)" fill="#6e3313" opacity="0.5" style="mix-blend-mode: multiply;isolation: isolate"/>
          </g>
          <g id="Group_2944" data-name="Group 2944" transform="translate(2.101 46.34)">
            <g id="Group_2943" data-name="Group 2943">
              <rect id="Rectangle_19" data-name="Rectangle 19" width="33.1" height="17.036" transform="translate(33.1 17.036) rotate(180)" fill="#e0b771"/>
              <path id="Path_2654" data-name="Path 2654" d="M216.334,269.35c4.31-.469,8.7-.733,12.879-1.977,6.49-1.933,12.148-6.066,14.034-12.478h2.8V271.93h-33.1v-2.262C214.089,269.591,215.222,269.471,216.334,269.35Z" transform="translate(-212.951 -254.895)" fill="#e0b771" opacity="0.5" style="mix-blend-mode: multiply;isolation: isolate"/>
            </g>
            <rect id="Rectangle_20" data-name="Rectangle 20" width="6.129" height="10.153" transform="translate(19.615 10.154) rotate(180)" fill="#ffdd7c"/>
          </g>
          <g id="Group_2946" data-name="Group 2946" transform="translate(7.576 30.679)">
            <g id="Group_2945" data-name="Group 2945">
              <rect id="Rectangle_21" data-name="Rectangle 21" width="22.149" height="15.661" transform="translate(22.149 15.662) rotate(180)" fill="#e0b771"/>
              <path id="Path_2655" data-name="Path 2655" d="M235.249,236.014c4.045-2.042,7.084-6.5,8.347-10.787h1.876v15.662H223.323v-1.514A38.074,38.074,0,0,0,235.249,236.014Z" transform="translate(-223.323 -225.227)" fill="#e0b771" opacity="0.5" style="mix-blend-mode: multiply;isolation: isolate"/>
            </g>
            <rect id="Rectangle_22" data-name="Rectangle 22" width="6.129" height="10.153" transform="translate(14.139 10.154) rotate(180)" fill="#ffdd7c"/>
          </g>
          <g id="Group_2948" data-name="Group 2948" transform="translate(11.704 20.855)">
            <g id="Group_2947" data-name="Group 2947">
              <rect id="Rectangle_23" data-name="Rectangle 23" width="13.893" height="9.824" transform="translate(13.893 9.824) rotate(180)" fill="#e0b771"/>
              <path id="Path_2656" data-name="Path 2656" d="M238.623,213.384a11.3,11.3,0,0,0,5.236-6.766h1.177v9.824H231.143v-.949A23.86,23.86,0,0,0,238.623,213.384Z" transform="translate(-231.143 -206.618)" fill="#e0b771" opacity="0.5" style="mix-blend-mode: multiply;isolation: isolate"/>
            </g>
            <rect id="Rectangle_24" data-name="Rectangle 24" width="3.844" height="6.369" transform="translate(8.869 6.369) rotate(180)" fill="#ffdd7c"/>
          </g>
          <g id="Group_2949" data-name="Group 2949" transform="translate(6.843 65.214)">
            <path id="Path_2657" data-name="Path 2657" d="M222.221,292.712l18.532,22.613a1.264,1.264,0,0,0,1.78.176h0a1.264,1.264,0,0,0,.176-1.78l-18.532-22.613a1.264,1.264,0,0,0-1.78-.176h0A1.264,1.264,0,0,0,222.221,292.712Z" transform="translate(-221.934 -290.646)" fill="#4b474c"/>
            <path id="Path_2658" data-name="Path 2658" d="M222.4,290.935a1.262,1.262,0,0,1,1.441-.108,1.248,1.248,0,0,0-.163.108,1.265,1.265,0,0,0-.177,1.78l18.532,22.613a1.26,1.26,0,0,0,.339.285,1.262,1.262,0,0,1-1.616-.285l-18.532-22.613A1.264,1.264,0,0,1,222.4,290.935Z" transform="translate(-221.934 -290.648)" fill="#4b474c" style="mix-blend-mode: screen;isolation: isolate"/>
          </g>
          <g id="Group_2950" data-name="Group 2950" transform="translate(25.148 65.214)">
            <path id="Path_2659" data-name="Path 2659" d="M256.895,292.712l15,18.246a1.265,1.265,0,0,0,1.78.176h0a1.264,1.264,0,0,0,.176-1.78l-15-18.246a1.264,1.264,0,0,0-1.78-.176h0A1.264,1.264,0,0,0,256.895,292.712Z" transform="translate(-256.608 -290.646)" fill="#4b474c"/>
            <path id="Path_2660" data-name="Path 2660" d="M257.071,290.935a1.261,1.261,0,0,1,1.446-.1,1.216,1.216,0,0,0-.157.1h0a1.264,1.264,0,0,0-.176,1.78l15,18.246a1.26,1.26,0,0,0,.333.281,1.261,1.261,0,0,1-1.622-.281l-15-18.246A1.264,1.264,0,0,1,257.071,290.935Z" transform="translate(-256.608 -290.648)" fill="#4b474c" style="mix-blend-mode: screen;isolation: isolate"/>
          </g>
          <path id="Path_2661" data-name="Path 2661" d="M407.094,364.842c1.073,10.429,9.712,1.374,21.394.172s21.984,5.9,20.911-4.525-11.413-17.908-23.095-16.706S406.021,354.414,407.094,364.842Z" transform="translate(-302.462 -250.459)" fill="#bd4113"/>
          <path id="Path_2662" data-name="Path 2662" d="M407.1,378.531c1.073,10.428,9.712,1.374,21.394.172,10.724-1.1,20.278,4.783,20.944-2.309.72,9.754-9.438,2.892-20.944,4.075-11.682,1.2-20.321,10.257-21.394-.172a17.115,17.115,0,0,1-.063-2.616C407.05,377.963,407.069,378.246,407.1,378.531Z" transform="translate(-302.465 -265.914)" fill="#bd4113" opacity="0.5" style="mix-blend-mode: multiply;isolation: isolate"/>
          <path id="Path_2663" data-name="Path 2663" d="M426.3,348.154c-10.189,1.048-18.031,8.355-19.159,17.124-.018-.141-.036-.286-.051-.435-1.073-10.428,7.527-19.857,19.21-21.059s22.022,6.278,23.095,16.706a8.871,8.871,0,0,1-.153,3.268C447.585,353.91,437.57,346.994,426.3,348.154Z" transform="translate(-302.462 -250.459)" fill="#bd4113" opacity="0.5" style="mix-blend-mode: screen;isolation: isolate"/>
          <path id="Path_2664" data-name="Path 2664" d="M259.49,292.875H298.4c-7.143,19.427,1.9,28.664,11.938,28.664h11.326c5.6,0,7.216-6.7,6.586-17.532l-4.774-43.824a3.191,3.191,0,1,1,6.348-.671l4.792,48.823c.222.073,0,8.485,0,8.485,0,4.916-3.584,8.9-8,8.9H247.529C237.981,325.722,250.751,292.875,259.49,292.875Z" transform="translate(-225.575 -209.385)" fill="#bd4113"/>
          <g id="Group_2951" data-name="Group 2951" transform="translate(18.567 47.27)" opacity="0.5" style="mix-blend-mode: multiply;isolation: isolate">
            <path id="Path_2665" data-name="Path 2665" d="M342.882,346.282c-3.119-4.338-4.116-11.3-.818-21.016h1.6C340.238,334.582,340.539,341.548,342.882,346.282Z" transform="translate(-289.405 -289.046)" fill="#bd4113"/>
            <path id="Path_2666" data-name="Path 2666" d="M246.085,310.88c-1.973,6.676-1.988,12.526,1.973,12.526h76.429c4.272,0,7.736-3.852,7.736-8.6,0,0,.214-8.13,0-8.2l-4.631-47.186a3.084,3.084,0,0,0-2.015-2.572,3.181,3.181,0,0,1,4.245,2.668l4.792,48.823c.222.073,0,8.485,0,8.485,0,4.916-3.584,8.9-8,8.9H247.529C243.062,325.722,243.481,318.532,246.085,310.88Z" transform="translate(-244.141 -256.655)" fill="#bd4113"/>
          </g>
          <path id="Path_2667" data-name="Path 2667" d="M250.106,359.2c0,10.665,10.976,8.438,24.515,8.438s24.515,2.227,24.515-8.438-6.788-24.72-24.515-24.72S250.106,348.533,250.106,359.2Z" transform="translate(-228.391 -246.125)" fill="#bd4113" opacity="0.5" style="mix-blend-mode: multiply;isolation: isolate"/>
          <path id="Path_2668" data-name="Path 2668" d="M250.106,362.068c0,9.868,10.976,7.808,24.515,7.808s24.515,2.06,24.515-7.808-6.788-22.875-24.515-22.875S250.106,352.2,250.106,362.068Z" transform="translate(-228.391 -248.351)" fill="#bd4113"/>
          <path id="Path_2669" data-name="Path 2669" d="M268.708,367.34c13.539,0,24.515,2.048,24.515-7.763a23.4,23.4,0,0,0-3.838-12.721,22.792,22.792,0,0,1,9.815,18.83c0,9.868-10.976,7.808-24.515,7.808-12.942,0-23.535,1.875-24.444-6.58C254.734,367.943,261.339,367.34,268.708,367.34Z" transform="translate(-228.454 -251.969)" fill="#bd4113" opacity="0.5" style="mix-blend-mode: multiply;isolation: isolate"/>
          <path id="Path_2670" data-name="Path 2670" d="M274.621,342.349c-17.013,0-23.765,12.716-24.066,22.727a9.284,9.284,0,0,1-.449-3.009c0-9.869,6.788-22.875,24.515-22.875s24.515,13.006,24.515,22.875a9.284,9.284,0,0,1-.449,3.009C298.387,355.065,291.635,342.349,274.621,342.349Z" transform="translate(-228.391 -248.351)" fill="#bd4113" opacity="0.5" style="mix-blend-mode: screen;isolation: isolate"/>
          <path id="Path_2671" data-name="Path 2671" d="M420.427,363.927a18.391,18.391,0,0,1,14.221-7.108.526.526,0,0,1,0,1.051,17.455,17.455,0,0,0-13.051,6.959A.742.742,0,1,1,420.427,363.927Zm17.362-5.7c1.682.177,3.306.156,4.774,1.128.636.421,1.332-.529.7-.958a9.9,9.9,0,0,0-5.345-1.43A.633.633,0,0,0,437.789,358.223Z" transform="translate(-308.704 -256.672)" fill="#bd4113" opacity="0.5" style="mix-blend-mode: screen;isolation: isolate"/>
          <path id="Path_2672" data-name="Path 2672" d="M263.762,360.647a21.4,21.4,0,0,1,16.548-8.27.611.611,0,0,1,0,1.222,20.312,20.312,0,0,0-15.187,8.1A.863.863,0,1,1,263.762,360.647Zm20.2-6.637c1.957.206,3.847.182,5.556,1.313.74.49,1.55-.617.813-1.115a11.52,11.52,0,0,0-6.22-1.664A.737.737,0,0,0,283.965,354.01Z" transform="translate(-234.727 -254.575)" fill="#bd4113" opacity="0.5" style="mix-blend-mode: screen;isolation: isolate"/>
          <path id="Path_2673" data-name="Path 2673" d="M293.743,321.17l27.311.46a6.12,6.12,0,0,0,5.294-3.291h0a2.292,2.292,0,0,0-1.724-3.479l-26.908-.4a4.034,4.034,0,0,0-3.973,4.146Z" transform="translate(-248.992 -236.675)" fill="#6e3313"/>
          <g id="Group_2952" data-name="Group 2952" transform="translate(44.752 65.155)">
            <path id="Path_2674" data-name="Path 2674" d="M315.686,290.535s18.284,1.214,20.357,2.711,3.867,39.586,3.867,39.586l-3.867.634S327.271,314.929,325.825,304c0,0-28.79,4.951-31.661-1.731C290.233,294.675,315.11,293.068,315.686,290.535Z" transform="translate(-293.743 -290.535)" fill="#4b474c"/>
            <path id="Path_2675" data-name="Path 2675" d="M315.686,290.535s1.131.075,2.861.211c-.141,3.316,1.407,6.895,4.385,8.216a45.235,45.235,0,0,0,6.047,2.055c.129.578.264,1.154.38,1.735l.025.126c.019.133.039.266.056.4.346,2.61.8,5.2,1.3,7.783a61.955,61.955,0,0,0,8.268,21.92l-2.963.486S327.271,314.929,325.825,304c0,0-28.79,4.951-31.661-1.731C290.233,294.675,315.11,293.068,315.686,290.535Z" transform="translate(-293.743 -290.535)" fill="#4b474c" opacity="0.4" style="mix-blend-mode: multiply;isolation: isolate"/>
          </g>
          <path id="Path_2676" data-name="Path 2676" d="M314.5,222.736c-3.684-2.072-8.374-5.946-8.619-5.318s-10.574,5.411-15.985,20.031c-2.919,7.888-1.382,27.745,2.418,31.084s23.954-12.548,23.954-12.548-4.806-6.361-1.927-13.268c0,0,4.654,9.354,25.2,2.735l-1.5-4.864S322.476,241.8,314.5,222.736Z" transform="translate(-246.457 -190.83)" fill="#ffc948"/>
          <path id="Path_2677" data-name="Path 2677" d="M329.974,270.638c-.429-1.225-2.808-1.944-3.5-3.021-.181-.284,3.449-3.654.7-4.942-1.439-.675-2.259-2.869,1.225-3.877-2.148-4.081-.75-7.676-.626-7.365,2.049,5.173,2.448,4.945,5.333,8.71a6.08,6.08,0,0,1-1.036-1.345C329.2,265.706,334,272.066,334,272.066s-1.92,1.513-4.685,3.506C329.758,273.447,330.77,272.911,329.974,270.638Z" transform="translate(-264.194 -206.911)" fill="#ffc948" style="mix-blend-mode: multiply;isolation: isolate"/>
          <path id="Path_2678" data-name="Path 2678" d="M289.4,258.489c-.1,3.681-.294,9.557.606,13.03.588,2.273,3.528,2.279,3.247,4.6-.565,4.651,3.231,3.208,3.428,3.6-.458,4.135-1.487,5.335,2.305,7.086-3.02,1.452-5.554,2.135-6.672,1.152C288.752,284.826,287.179,267.184,289.4,258.489Z" transform="translate(-246.457 -210.251)" fill="#ffc948" style="mix-blend-mode: multiply;isolation: isolate"/>
          <path id="Path_2679" data-name="Path 2679" d="M385.866,260.222l-3.4.6,1.5,4.864,3.4-.979Z" transform="translate(-290.879 -211.069)" fill="#fff78c"/>
          <path id="Path_2680" data-name="Path 2680" d="M388.944,257.594s3.7-3.258,6-2.913,5,1.716,4.18,3.688c0,0-2.972-1.553-4.659-.776s-1,3.713-1,3.713l-3.195.777Z" transform="translate(-293.936 -208.441)" fill="#ffffd1"/>
          <path id="Path_2681" data-name="Path 2681" d="M319.706,286.132c1.8-.593,3.812-1.641,4.347-3.6a.6.6,0,0,1,1.161.32c-.671,2.5-2.888,3.43-4.99,4.505A.669.669,0,1,1,319.706,286.132Z" transform="translate(-261.025 -221.402)" fill="#fff78c"/>
          <circle id="Ellipse_48" data-name="Ellipse 48" cx="3.932" cy="3.932" r="3.932" transform="translate(97.271 48.634) rotate(-9.196)" fill="#ff6e28"/>
          <path id="Path_2682" data-name="Path 2682" d="M397.5,263.384a2.256,2.256,0,1,0,2.256-2.256A2.256,2.256,0,0,0,397.5,263.384Z" transform="translate(-297.974 -211.497)" fill="#bd4113"/>
          <g id="Group_2954" data-name="Group 2954" transform="translate(62.151 16.538)">
            <g id="Group_2953" data-name="Group 2953" transform="translate(0 1.124)">
              <path id="Path_2683" data-name="Path 2683" d="M335.575,211.256l.138-.448c-4.688-1.445-7.563-4.253-8.332-6.393a2.3,2.3,0,0,1,.069-2.078c.588-.894,5.819-1.27,8.979-1.3l0-.469c-.862.008-8.449.114-9.366,1.509a2.743,2.743,0,0,0-.118,2.494C327.749,206.824,330.733,209.763,335.575,211.256Z" transform="translate(-326.703 -200.57)" fill="#fff"/>
            </g>
            <path id="Path_2684" data-name="Path 2684" d="M353.862,198.441s-8.161.352-10.147,1.129c0,0,.546,9.68-.857,10.571,0,0,6.907,2,11.257-3.261C356.607,203.867,355.641,199.5,353.862,198.441Z" transform="translate(-334.33 -198.441)" fill="#cff0fa"/>
            <path id="Path_2685" data-name="Path 2685" d="M343.819,207.429a10.507,10.507,0,0,0,5.462,2.633,6.615,6.615,0,0,0,6.333-3.469,6.658,6.658,0,0,1-1.5,4.135c-4.35,5.258-11.257,3.261-11.257,3.261C343.648,213.488,343.82,210.2,343.819,207.429Z" transform="translate(-334.33 -202.29)" fill="#cff0fa" style="mix-blend-mode: multiply;isolation: isolate"/>
          </g>
          <path id="Path_2686" data-name="Path 2686" d="M330.462,202.672l-1.094,4.547s-3.166-2.245-2.187-3.856S330.462,202.672,330.462,202.672Z" transform="translate(-264.689 -183.777)" fill="#ffbca9"/>
          <path id="Path_2687" data-name="Path 2687" d="M331.8,204.94l-.478,1.989s-1.384-.981-.957-1.686S331.8,204.94,331.8,204.94Z" transform="translate(-266.24 -184.917)" fill="#ffbca9" opacity="0.6" style="mix-blend-mode: multiply;isolation: isolate"/>
          <g id="Group_2959" data-name="Group 2959" transform="translate(1.079 9.017)">
            <g id="Group_2955" data-name="Group 2955" transform="translate(17.253 10.657)">
              <path id="Path_2688" data-name="Path 2688" d="M243.932,249.87a.234.234,0,0,0,.234-.234v-45.02a.234.234,0,0,0-.468,0v45.02A.234.234,0,0,0,243.932,249.87Z" transform="translate(-243.698 -204.382)" fill="#bd4113"/>
            </g>
            <g id="Group_2956" data-name="Group 2956" transform="translate(17.253 10.657)">
              <path id="Path_2689" data-name="Path 2689" d="M261.185,250.88a.227.227,0,0,0,.082-.015.234.234,0,0,0,.137-.3l-17.253-46.03a.234.234,0,1,0-.438.164l17.253,46.03A.235.235,0,0,0,261.185,250.88Z" transform="translate(-243.698 -204.382)" fill="#bd4113"/>
            </g>
            <g id="Group_2957" data-name="Group 2957" transform="translate(0 10.657)">
              <path id="Path_2690" data-name="Path 2690" d="M211.249,250.88a.234.234,0,0,0,.219-.152l17.253-46.03a.234.234,0,1,0-.438-.164l-17.253,46.03a.234.234,0,0,0,.137.3A.224.224,0,0,0,211.249,250.88Z" transform="translate(-211.015 -204.382)" fill="#bd4113"/>
            </g>
            <g id="Group_2958" data-name="Group 2958" transform="translate(8.961)">
              <path id="Path_2691" data-name="Path 2691" d="M235.9,195.606c-2.979-.885-6.151-4.921-7.355-7.369a4.088,4.088,0,0,1-.526-2.343,1.917,1.917,0,0,1,1.715-1.7,2.71,2.71,0,0,1,1.787.969,18.892,18.892,0,0,1,4.8,8.454,16.415,16.415,0,0,1,.637-3.6,7.47,7.47,0,0,1,3.186-4.315c1-.582,2.474-.8,3.332.086,1.111,1.151.277,3-.134,3.747-.845,1.531-3.66,6.183-6.642,6.183A2.816,2.816,0,0,1,235.9,195.606Zm4.477-9.493a7.008,7.008,0,0,0-2.975,4.051,20.6,20.6,0,0,0-.717,5.089h.011c2.806,0,5.656-4.89,6.235-5.939h0c.36-.652,1.1-2.269.207-3.195a1.609,1.609,0,0,0-1.195-.456A3.246,3.246,0,0,0,240.376,186.113Zm-10.637-1.451a1.463,1.463,0,0,0-1.257,1.3,3.664,3.664,0,0,0,.481,2.069c1.169,2.375,4.224,6.282,7.069,7.127.05.015.1.028.15.039a18.4,18.4,0,0,0-5-9.7,2.237,2.237,0,0,0-1.434-.83Z" transform="translate(-227.991 -184.194)" fill="#bd4113"/>
            </g>
          </g>
        </g>
        <g id="Group_2963" data-name="Group 2963" transform="translate(0 53.513)">
          <g id="Group_2961" data-name="Group 2961" transform="translate(0 49.454)">
            <path id="Path_2692" data-name="Path 2692" d="M124.063,364.245h55.3v-2.083h-55.3a1.042,1.042,0,0,0-1.042,1.042h0A1.042,1.042,0,0,0,124.063,364.245Z" transform="translate(-110.653 -362.162)" fill="#ffe9a5"/>
            <path id="Path_2693" data-name="Path 2693" d="M100.635,388.334h55.3v-2.083h-55.3a1.041,1.041,0,0,0-1.042,1.042h0A1.041,1.041,0,0,0,100.635,388.334Z" transform="translate(-99.593 -373.534)" fill="#ffe9a5"/>
            <path id="Path_2694" data-name="Path 2694" d="M170.88,411.084h43.044V409H170.88a1.041,1.041,0,0,0-1.041,1.041h0A1.041,1.041,0,0,0,170.88,411.084Z" transform="translate(-132.756 -384.275)" fill="#ffe9a5"/>
          </g>
          <g id="Group_2962" data-name="Group 2962" transform="translate(15.566)">
            <path id="Path_2695" data-name="Path 2695" d="M161.425,323.4h28.083v-2.083H161.425a1.041,1.041,0,0,0-1.041,1.041h0A1.041,1.041,0,0,0,161.425,323.4Z" transform="translate(-143.859 -293.426)" fill="#ffe9a5"/>
            <path id="Path_2696" data-name="Path 2696" d="M146.734,270.565h28.083v-2.083H146.734a1.041,1.041,0,0,0-1.042,1.041h0A1.041,1.041,0,0,0,146.734,270.565Z" transform="translate(-136.922 -268.482)" fill="#ffe9a5"/>
            <path id="Path_2697" data-name="Path 2697" d="M130.121,292.582H158.2V290.5H130.121a1.041,1.041,0,0,0-1.041,1.041h0A1.041,1.041,0,0,0,130.121,292.582Z" transform="translate(-129.08 -278.876)" fill="#ffe9a5"/>
          </g>
        </g>
      </g>
    </g>
  </g>
</svg>
