<svg xmlns="http://www.w3.org/2000/svg" width="15.422" height="20.247" viewBox="0 0 15.422 20.247">
  <g id="money-bag" transform="translate(-61)">
    <g id="Group_2997" data-name="Group 2997" transform="translate(66.894 8.977)">
      <g id="Group_2996" data-name="Group 2996" transform="translate(0)">
        <path id="Path_2797" data-name="Path 2797" d="M211.859,230.559a.593.593,0,0,1-.231-1.14.812.812,0,0,1,.872.263.593.593,0,1,0,.826-.852,2.33,2.33,0,0,0-.874-.546v-.691a.593.593,0,0,0-1.186,0v.695c-.034.012-.067.025-.1.039a1.78,1.78,0,0,0,.694,3.419.593.593,0,0,1,.2,1.151.911.911,0,0,1-.973-.413.593.593,0,0,0-.908.763,2.466,2.466,0,0,0,1.085.775v.69a.593.593,0,0,0,1.186,0v-.695l.016-.005a1.78,1.78,0,0,0-.609-3.452Z" transform="translate(-210.042 -227)" fill="#555"/>
      </g>
    </g>
    <g id="Group_2999" data-name="Group 2999" transform="translate(61 0)">
      <g id="Group_2998" data-name="Group 2998" transform="translate(0)">
        <path id="Path_2798" data-name="Path 2798" d="M74.2,8.908a8.411,8.411,0,0,0-2.4-2.055,1.783,1.783,0,0,0-.881-2.868l1.514-2.64A.593.593,0,0,0,72.094.48a12.166,12.166,0,0,0-6.765,0,.593.593,0,0,0-.349.865l1.514,2.64a1.782,1.782,0,0,0-.88,2.868,8.411,8.411,0,0,0-2.4,2.055,9.728,9.728,0,0,0-2.218,6c0,4.314,3.442,5.339,7.711,5.339s7.711-1.026,7.711-5.339A9.729,9.729,0,0,0,74.2,8.908ZM66.4,1.432a11.007,11.007,0,0,1,4.627,0L69.718,3.71a7.276,7.276,0,0,0-2.014,0Zm.388,3.7a6.133,6.133,0,0,1,3.127-.191h0a6.262,6.262,0,0,1,.72.19.593.593,0,0,1-.121,1.154,5.97,5.97,0,0,0-3.605,0,.592.592,0,0,1-.125-1.152Zm1.926,13.932c-4.634,0-6.525-1.211-6.525-4.16a8.644,8.644,0,0,1,1.952-5.252,5.482,5.482,0,0,1,9.146,0,8.644,8.644,0,0,1,1.952,5.252C75.236,17.858,73.346,19.068,68.711,19.068Z" transform="translate(-61 0)" fill="#555"/>
      </g>
    </g>
  </g>
</svg>
