<svg id="box" xmlns="http://www.w3.org/2000/svg" width="34.913" height="32.799" viewBox="0 0 34.913 32.799">
  <g id="Group_2976" data-name="Group 2976">
    <path id="Path_2778" data-name="Path 2778" d="M30.967,26.75l3.771-5.563a1.023,1.023,0,0,0-.525-1.545L21.87,15.551a1.023,1.023,0,0,0-1.173.4l-3.24,4.86-3.24-4.861a1.023,1.023,0,0,0-1.173-.4L.7,19.642a1.023,1.023,0,0,0-.525,1.545L3.947,26.75.177,32.313A1.023,1.023,0,0,0,.7,33.858L4.16,35v8.179a1.023,1.023,0,0,0,.7.97l12.27,4.09a1.023,1.023,0,0,0,.655,0l12.271-4.09a1.023,1.023,0,0,0,.7-.97V35l3.459-1.146a1.023,1.023,0,0,0,.525-1.545Zm-9-9.012,10.318,3.42-2.966,4.376L19.051,22.112ZM2.629,21.159l10.318-3.421,2.916,4.374L5.595,25.535Zm0,11.183,2.966-4.376,10.268,3.423-2.916,4.374ZM16.434,45.856,6.206,42.447V35.683l6.838,2.267a1.023,1.023,0,0,0,1.173-.4l2.217-3.326Zm1.023-16.093L8.417,26.75l9.04-3.013L26.5,26.75ZM28.708,42.447,18.48,45.856V34.22L20.7,37.546a1.023,1.023,0,0,0,1.173.4l6.838-2.267Zm-6.741-6.684-2.916-4.374,10.268-3.423,2.966,4.376Z" transform="translate(0 -15.499)" fill="#555"/>
  </g>
</svg>
