<svg xmlns="http://www.w3.org/2000/svg" width="14.463" height="20.569" viewBox="0 0 14.463 20.569">
  <g id="Group_3151" data-name="Group 3151" transform="translate(-55.746 -482.677)">
    <path id="Path_2779" data-name="Path 2779" d="M83.231,0a7.233,7.233,0,0,0-6.152,11.034l5.74,9.25a.6.6,0,0,0,.512.285h0a.6.6,0,0,0,.512-.293l5.594-9.34A7.233,7.233,0,0,0,83.231,0Zm5.177,10.317-5.086,8.492L78.1,10.4a6.03,6.03,0,1,1,10.3-.081Z" transform="translate(-20.254 482.677)" fill="#555"/>
    <path id="Path_2780" data-name="Path 2780" d="M169.616,90a3.616,3.616,0,1,0,3.616,3.616A3.62,3.62,0,0,0,169.616,90Zm0,6.034a2.418,2.418,0,1,1,2.414-2.418A2.42,2.42,0,0,1,169.616,96.034Z" transform="translate(-106.638 396.293)" fill="#555"/>
  </g>
</svg>
