<svg xmlns="http://www.w3.org/2000/svg" width="21.895" height="20.569" viewBox="0 0 21.895 20.569">
  <path id="Path_2778" data-name="Path 2778" d="M19.42,22.555l2.365-3.489a.642.642,0,0,0-.329-.969l-7.74-2.566a.641.641,0,0,0-.736.253l-2.032,3.048L8.916,15.785a.641.641,0,0,0-.736-.253L.44,18.1a.641.641,0,0,0-.329.969l2.365,3.489L.111,26.044a.641.641,0,0,0,.329.969l2.169.719v5.129a.641.641,0,0,0,.439.609l7.695,2.565a.641.641,0,0,0,.411,0l7.7-2.565a.641.641,0,0,0,.439-.609V27.732l2.169-.719a.642.642,0,0,0,.329-.969ZM13.776,16.9l6.471,2.145-1.86,2.744-6.44-2.147ZM1.649,19.048,8.12,16.9l1.829,2.743-6.44,2.147Zm0,7.013,1.86-2.744,6.44,2.147L8.12,28.207Zm8.658,8.475L3.892,32.4V28.157L8.18,29.578a.641.641,0,0,0,.736-.253l1.391-2.086Zm.641-10.092-5.669-1.89,5.669-1.89,5.669,1.89ZM18,32.4l-6.414,2.138v-7.3l1.391,2.086a.641.641,0,0,0,.736.253L18,28.157Zm-4.228-4.192-1.829-2.743,6.44-2.147,1.86,2.744Z" transform="translate(0 -15.499)" fill="#555"/>
</svg>
