<svg id="location_1_" data-name="location (1)" xmlns="http://www.w3.org/2000/svg" width="32.666" height="32.666" viewBox="0 0 32.666 32.666">
  <g id="Group_3002" data-name="Group 3002">
    <g id="Group_3001" data-name="Group 3001">
      <path id="Path_2799" data-name="Path 2799" d="M12.25,0A12.262,12.262,0,0,0,0,12.25C0,20.741,11.057,31.9,11.527,32.368a1.025,1.025,0,0,0,1.445,0s.9-.9,2.17-2.358A1.022,1.022,0,1,0,13.6,28.667c-.535.612-1,1.123-1.354,1.5C9.812,27.562,2.042,18.736,2.042,12.25a10.208,10.208,0,0,1,20.416,0,5.641,5.641,0,0,1-.067.913A1.021,1.021,0,1,0,24.4,13.5a7.564,7.564,0,0,0,.1-1.252A12.262,12.262,0,0,0,12.25,0Z" fill="#555"/>
    </g>
  </g>
  <g id="Group_3004" data-name="Group 3004" transform="translate(6.125 6.125)">
    <g id="Group_3003" data-name="Group 3003">
      <path id="Path_2800" data-name="Path 2800" d="M102.125,96a6.125,6.125,0,1,0,6.125,6.125A6.132,6.132,0,0,0,102.125,96Zm0,10.208a4.083,4.083,0,1,1,4.083-4.083A4.087,4.087,0,0,1,102.125,106.208Z" transform="translate(-96 -96)" fill="#555"/>
    </g>
  </g>
  <g id="Group_3006" data-name="Group 3006" transform="translate(16.333 16.333)">
    <g id="Group_3005" data-name="Group 3005">
      <path id="Path_2801" data-name="Path 2801" d="M264.167,256a8.167,8.167,0,1,0,8.167,8.167A8.175,8.175,0,0,0,264.167,256Zm0,14.291a6.125,6.125,0,1,1,6.125-6.125A6.132,6.132,0,0,1,264.167,270.291Z" transform="translate(-256 -256)" fill="#555"/>
    </g>
  </g>
  <g id="Group_3008" data-name="Group 3008" transform="translate(20.416 20.416)">
    <g id="Group_3007" data-name="Group 3007">
      <path id="Path_2802" data-name="Path 2802" d="M327.146,323.062H325.1v-2.042a1.021,1.021,0,0,0-2.042,0v2.042h-2.042a1.021,1.021,0,0,0,0,2.042h2.042v2.042a1.021,1.021,0,0,0,2.042,0V325.1h2.042a1.021,1.021,0,0,0,0-2.042Z" transform="translate(-320 -320)" fill="#555"/>
    </g>
  </g>
</svg>
