<svg xmlns="http://www.w3.org/2000/svg" width="32.74" height="34.927" viewBox="0 0 32.74 34.927">
  <g id="box_1_" data-name="box (1)" transform="translate(-16.032 0)">
    <path id="Path_2828" data-name="Path 2828" d="M38.915,9.379,23.841,16.656a.547.547,0,0,0-.309.492V35.055a.547.547,0,0,0,.309.492l15.074,7.277a1.094,1.094,0,0,0,.951,0L54.94,35.547a.547.547,0,0,0,.309-.492V17.149a.547.547,0,0,0-.309-.492L39.866,9.379A1.094,1.094,0,0,0,38.915,9.379Z" transform="translate(-6.988 -8.638)" fill="#ffe17d"/>
    <path id="Path_2829" data-name="Path 2829" d="M23.623,120.368a.544.544,0,0,0-.091.3v17.906a.547.547,0,0,0,.309.492l15.074,7.277a1.093,1.093,0,0,0,.475.109V127.98Z" transform="translate(-6.988 -112.156)" fill="#ffc350"/>
    <path id="Path_2830" data-name="Path 2830" d="M271.768,120.368a.545.545,0,0,1,.091.3v17.906a.547.547,0,0,1-.309.492l-15.074,7.277a1.093,1.093,0,0,1-.475.109V127.98Z" transform="translate(-223.598 -112.156)" fill="#ffd164"/>
    <path id="Path_2831" data-name="Path 2831" d="M135.712,53.644,119.889,46l-4.171,2.022,15.858,7.656Z" transform="translate(-92.886 -42.862)" fill="#ff8087"/>
    <path id="Path_2832" data-name="Path 2832" d="M348.185,160.086v5.931a.273.273,0,0,0,.392.246l3.434-1.658a.547.547,0,0,0,.309-.492v-6.06Z" transform="translate(-309.494 -147.27)" fill="#e6646e"/>
    <path id="Path_2833" data-name="Path 2833" d="M48.483,7.707,32.625.051a.512.512,0,0,0-.445,0L16.321,7.707a.512.512,0,0,0-.289.461V26.76a.512.512,0,0,0,.289.461L32.18,34.877a.512.512,0,0,0,.445,0l15.858-7.656a.512.512,0,0,0,.289-.461V8.168A.512.512,0,0,0,48.483,7.707ZM32.4,1.08,47.084,8.168l-4.256,2.055a.507.507,0,0,0-.087-.055L28.159,3.128ZM27,3.707l14.66,7.077-3,1.45L24.007,5.159Zm12.2,9.4,2.8-1.354v5.358l-2.8,1.354ZM32.914,33.6V16.145l3.539-1.708a.512.512,0,1,0-.445-.921L32.4,15.256l-1.419-.685a.512.512,0,1,0-.445.921l1.352.653V33.6L17.055,26.439V8.983l11.3,5.454a.512.512,0,0,0,.445-.921L17.72,8.168,22.8,5.714l15.369,7.42.007.009v6.14a.512.512,0,0,0,.734.461L42.741,17.9a.512.512,0,0,0,.289-.461V11.261l4.719-2.278V26.439Z" transform="translate(0 0)"/>
    <path id="Path_2834" data-name="Path 2834" d="M51.11,342.437l-2.327-1.123a.512.512,0,1,0-.445.921l2.327,1.123a.512.512,0,0,0,.445-.921Z" transform="translate(-29.832 -317.982)"/>
    <path id="Path_2835" data-name="Path 2835" d="M53.3,307.9l-4.466-2.156a.512.512,0,0,0-.445.922l4.466,2.156a.512.512,0,0,0,.445-.922Z" transform="translate(-29.877 -284.836)"/>
  </g>
</svg>
