<svg id="call" xmlns="http://www.w3.org/2000/svg" width="25.622" height="25.622" viewBox="0 0 25.622 25.622">
  <g id="Group_101" data-name="Group 101">
    <path id="Path_142" data-name="Path 142" d="M23.566,16.818A14.547,14.547,0,0,1,19,16.09a2.088,2.088,0,0,0-2.031.428l-2.881,2.175a15.921,15.921,0,0,1-7.158-7.157L9.038,8.73a2.071,2.071,0,0,0,.509-2.1,14.569,14.569,0,0,1-.73-4.576A2.058,2.058,0,0,0,6.761,0H2.056A2.058,2.058,0,0,0,0,2.056,23.592,23.592,0,0,0,23.566,25.622a2.058,2.058,0,0,0,2.056-2.056V18.874A2.058,2.058,0,0,0,23.566,16.818Z" fill="#fff"/>
  </g>
</svg>
