<svg xmlns="http://www.w3.org/2000/svg" width="22.481" height="20.998" viewBox="0 0 22.481 20.998">
  <g id="Group_3149" data-name="Group 3149" transform="translate(-53.031 -332.306)">
    <path id="Path_2776" data-name="Path 2776" d="M22.39,25.28a1.854,1.854,0,0,0-.885-1.361,1.827,1.827,0,0,0-1.6-.143.879.879,0,0,1-1.1-.493,8.168,8.168,0,0,0-.835-1.452.875.875,0,0,1,.121-1.2,1.824,1.824,0,0,0,.668-1.45,1.854,1.854,0,0,0-.74-1.447,11.234,11.234,0,0,0-2.423-1.4,1.861,1.861,0,0,0-1.628.082,1.82,1.82,0,0,0-.921,1.3.877.877,0,0,1-.982.7,8.018,8.018,0,0,0-1.664,0,.875.875,0,0,1-.981-.7,1.813,1.813,0,0,0-.921-1.3,1.865,1.865,0,0,0-1.628-.082,11.234,11.234,0,0,0-2.423,1.4,1.852,1.852,0,0,0-.74,1.447,1.825,1.825,0,0,0,.669,1.452.872.872,0,0,1,.12,1.2,8.208,8.208,0,0,0-.835,1.452.885.885,0,0,1-1.107.49,1.819,1.819,0,0,0-1.586.146,1.856,1.856,0,0,0-.885,1.36,10.955,10.955,0,0,0,0,2.817,1.854,1.854,0,0,0,.885,1.361,1.82,1.82,0,0,0,1.6.143.878.878,0,0,1,1.1.493A8.168,8.168,0,0,0,4.5,31.544a.875.875,0,0,1-.121,1.2,1.824,1.824,0,0,0-.668,1.45,1.854,1.854,0,0,0,.74,1.447,11.234,11.234,0,0,0,2.423,1.4,1.9,1.9,0,0,0,.732.149,1.845,1.845,0,0,0,.9-.232,1.82,1.82,0,0,0,.921-1.3.872.872,0,0,1,.982-.7,8.018,8.018,0,0,0,1.664,0,.872.872,0,0,1,.981.7,1.813,1.813,0,0,0,.921,1.3,1.865,1.865,0,0,0,1.628.082,11.234,11.234,0,0,0,2.423-1.4,1.852,1.852,0,0,0,.74-1.447A1.828,1.828,0,0,0,18.1,32.74a.872.872,0,0,1-.12-1.2,8.208,8.208,0,0,0,.835-1.452.879.879,0,0,1,1.1-.494l.171-.457-.161.461a1.809,1.809,0,0,0,1.586-.146,1.856,1.856,0,0,0,.885-1.36,10.96,10.96,0,0,0,0-2.817Zm-.969,2.692a.88.88,0,0,1-.42.647.851.851,0,0,1-.743.066l-.009,0a1.865,1.865,0,0,0-2.33,1.011,7.246,7.246,0,0,1-.736,1.28,1.842,1.842,0,0,0,.3,2.523.847.847,0,0,1,.31.674.88.88,0,0,1-.352.688,10.235,10.235,0,0,1-2.213,1.278.889.889,0,0,1-.777-.038.835.835,0,0,1-.428-.605,1.84,1.84,0,0,0-2.048-1.514,7.139,7.139,0,0,1-1.459,0,1.831,1.831,0,0,0-2.049,1.514.832.832,0,0,1-.428.605.883.883,0,0,1-.777.038,10.212,10.212,0,0,1-2.213-1.278.883.883,0,0,1-.352-.687A.851.851,0,0,1,5,33.5,1.841,1.841,0,0,0,5.3,30.974a7.283,7.283,0,0,1-.737-1.281,1.881,1.881,0,0,0-1.708-1.12,1.821,1.821,0,0,0-.634.114.843.843,0,0,1-.738-.067.878.878,0,0,1-.42-.648,9.971,9.971,0,0,1,0-2.569.88.88,0,0,1,.42-.647.851.851,0,0,1,.749-.064,1.861,1.861,0,0,0,2.332-1.01A7.246,7.246,0,0,1,5.3,22.4,1.84,1.84,0,0,0,5,19.879a.847.847,0,0,1-.31-.674.885.885,0,0,1,.352-.688,10.213,10.213,0,0,1,2.213-1.278.886.886,0,0,1,.777.037.835.835,0,0,1,.428.605A1.842,1.842,0,0,0,10.51,19.4a7.139,7.139,0,0,1,1.459,0,1.838,1.838,0,0,0,2.049-1.514.832.832,0,0,1,.428-.605.883.883,0,0,1,.777-.038,10.212,10.212,0,0,1,2.213,1.278.883.883,0,0,1,.352.687.851.851,0,0,1-.311.675,1.841,1.841,0,0,0-.294,2.523,7.283,7.283,0,0,1,.737,1.281,1.862,1.862,0,0,0,2.342,1,.84.84,0,0,1,.738.067.878.878,0,0,1,.42.648,9.849,9.849,0,0,1,.083,1.283A10.044,10.044,0,0,1,21.422,27.972Z" transform="translate(53.031 316.118)" fill="#333"/>
    <path id="Path_2777" data-name="Path 2777" d="M153.732,149.337a4.4,4.4,0,1,0,4.4,4.4A4.4,4.4,0,0,0,153.732,149.337Zm0,7.82a3.421,3.421,0,1,1,3.421-3.421A3.425,3.425,0,0,1,153.732,157.157Z" transform="translate(-89.46 189.07)" fill="#333"/>
  </g>
</svg>
