<svg xmlns="http://www.w3.org/2000/svg" width="188.021" height="146.078" viewBox="0 0 188.021 146.078">
  <g id="delivery" transform="translate(0 -0.001)">
    <path id="Path_2704" data-name="Path 2704" d="M158,114.051l63.163,34.683,63.163-34.683V44.683L221.163,10,158,44.683Zm0,0" transform="translate(-99.978 -6.327)" fill="#ffc15a"/>
    <path id="Path_2705" data-name="Path 2705" d="M393.1,104.469v69.346L329.936,208.5l-.037-.02V139.132l63.163-34.683Zm0,0" transform="translate(-208.75 -66.092)" fill="#ffcb7c"/>
    <path id="Path_2706" data-name="Path 2706" d="M284.327,44.683h0L221.163,79.369,158,44.684h0L221.163,10Zm0,0" transform="translate(-99.978 -6.327)" fill="#ffe6c0"/>
    <path id="Path_2707" data-name="Path 2707" d="M226.34,53.933,289.5,88.616l13.534-7.558L239.874,46.375Zm0,0" transform="translate(-143.221 -29.344)" fill="#fff"/>
    <path id="Path_2708" data-name="Path 2708" d="M398.34,148.379v21.662l13.534-7.449V140.82Zm0,0" transform="translate(-252.058 -89.106)" fill="#fff"/>
    <path id="Path_2709" data-name="Path 2709" d="M200.433,35.137,137.269.454a3.674,3.674,0,0,0-3.535,0L109.982,13.5a3.681,3.681,0,0,0-1.462.8L70.571,35.137a3.673,3.673,0,0,0-1.9,3.219v7.508H26.3a3.672,3.672,0,1,0,0,7.345H68.666v13.22H47.612a3.672,3.672,0,1,0,0,7.345H68.666v19.1H37.819a3.672,3.672,0,1,0,0,7.345H68.666v7.51a3.673,3.673,0,0,0,1.9,3.219l63.163,34.683a3.672,3.672,0,0,0,3.535,0l63.163-34.683a3.673,3.673,0,0,0,1.9-3.219V91.279a3.672,3.672,0,1,0-7.345,0V105.55L139.174,136.2V75.212l17.752-9.747v15.47a3.672,3.672,0,0,0,5.442,3.218L175.9,76.7a3.673,3.673,0,0,0,1.9-3.218V54l17.188-9.437V61.9a3.672,3.672,0,1,0,7.345,0V38.356A3.673,3.673,0,0,0,200.433,35.137ZM131.83,136.2,76.011,105.55V44.563L131.83,75.212ZM135.5,68.85,79.969,38.356l17.453-9.584,55.535,30.494Zm25.085-13.774L105.052,24.582l6.021-3.305,55.533,30.494Zm9.874,16.238-6.19,3.407V61.433l6.19-3.4Zm3.776-23.734L118.7,17.087l16.8-9.224,55.533,30.493Zm0,0" transform="translate(-14.316 0)"/>
    <path id="Path_2710" data-name="Path 2710" d="M495.672,198.563a3.673,3.673,0,1,0,2.6,1.076A3.683,3.683,0,0,0,495.672,198.563Zm0,0" transform="translate(-311.323 -125.644)"/>
    <path id="Path_2711" data-name="Path 2711" d="M8.935,252.891H3.672a3.672,3.672,0,1,0,0,7.345H8.935a3.672,3.672,0,1,0,0-7.345Zm0,0" transform="translate(0 -160.021)"/>
    <path id="Path_2712" data-name="Path 2712" d="M48.016,184.563a3.676,3.676,0,1,0-1.077,2.6A3.693,3.693,0,0,0,48.016,184.563Zm0,0" transform="translate(-25.736 -114.462)"/>
  </g>
</svg>
