<svg id="ribbon" xmlns="http://www.w3.org/2000/svg" width="21.772" height="35.706" viewBox="0 0 21.772 35.706">
  <path id="Path_2891" data-name="Path 2891" d="M153.411,1.28c-3.494-1.742-6.071-1.668-9.58-.007a3.21,3.21,0,0,0-1.868,2.274c-.121.687-.19,2.356-.249,3.176a12.1,12.1,0,0,1,13.629,0,19.378,19.378,0,0,0-.235-3.45,3.14,3.14,0,0,0-1.7-1.993Z" transform="translate(-137.642 0)" fill="#da364c"/>
  <path id="Path_2892" data-name="Path 2892" d="M141.356,53.186l-3.634,5.6c-2.428-3.163-4.724-6.276-6.832-9.3-1.6-2.281-3.067-4.525-4.419-6.706-.756-1.21-1.468-2.42-2.137-3.592a15.68,15.68,0,0,1-2.2-7.071,9.809,9.809,0,0,1,2.644-7.083c-1,1.676,1.542,6.995,5.206,12.566,1.44,2.194,3.007,4.426,4.492,6.491,3.648,5.054,6.875,9.1,6.875,9.1Z" transform="translate(-119.585 -23.079)" fill="#ef5261"/>
  <path id="Path_2893" data-name="Path 2893" d="M180.021,184.56q-1.636,2.569-3.591,5.394c-1.6-2.281-3.991-5.844-5.343-8.025,1.219-1.739,2.413-3.491,3.518-5.182C176.044,178.942,178.539,182.493,180.021,184.56Z" transform="translate(-164.727 -162.978)" fill="#da364c"/>
  <path id="Path_2894" data-name="Path 2894" d="M93.067,56.745A175.673,175.673,0,0,0,106.458,37.14a15.793,15.793,0,0,0,2.189-7.065,10.217,10.217,0,0,0-2.7-7.258c2.364,3.938-16.515,28.336-16.515,28.336Z" transform="translate(-89.433 -21.039)" fill="#ef5261"/>
</svg>
