<svg xmlns="http://www.w3.org/2000/svg" width="10.008" height="9.588" viewBox="0 0 10.008 9.588">
  <path id="star" d="M9.79,5.392a.718.718,0,0,0-.4-1.224L6.969,3.816a.317.317,0,0,1-.238-.173l-1.083-2.2a.718.718,0,0,0-1.287,0l-1.084,2.2a.317.317,0,0,1-.239.173L.614,4.168a.718.718,0,0,0-.4,1.224L1.97,7.1a.317.317,0,0,1,.091.281L1.647,9.8a.7.7,0,0,0,.157.582.725.725,0,0,0,.885.175L4.856,9.412a.324.324,0,0,1,.295,0l2.167,1.139a.71.71,0,0,0,.334.084.72.72,0,0,0,.551-.258A.7.7,0,0,0,8.359,9.8L7.946,7.382A.317.317,0,0,1,8.037,7.1Z" transform="translate(0.001 -1.047)" fill="#fff"/>
</svg>
