<svg id="clock-circular-outline" xmlns="http://www.w3.org/2000/svg" width="17.207" height="17.207" viewBox="0 0 17.207 17.207">
  <g id="Group_3026" data-name="Group 3026">
    <path id="Path_2805" data-name="Path 2805" d="M8.6,0a8.6,8.6,0,1,0,8.6,8.6A8.613,8.613,0,0,0,8.6,0Zm0,15.326A6.723,6.723,0,1,1,15.326,8.6,6.73,6.73,0,0,1,8.6,15.326Z" fill="#4c8ff8"/>
    <path id="Path_2806" data-name="Path 2806" d="M258.247,143.59v-3.606a.729.729,0,1,0-1.458,0v3.839c0,.011,0,.022,0,.034a.725.725,0,0,0,.21.551l2.715,2.714a.729.729,0,1,0,1.031-1.031Z" transform="translate(-248.899 -134.976)" fill="#4c8ff8"/>
  </g>
</svg>
