<?xml version="1.0" encoding="iso-8859-1"?>
<!-- Generator: Adobe Illustrator 19.0.0, SVG Export Plug-In . SVG Version: 6.00 Build 0)  -->
<svg version="1.1" id="Capa_1" xmlns="http://www.w3.org/2000/svg" xmlns:xlink="http://www.w3.org/1999/xlink" x="0px" y="0px"
	 viewBox="0 0 480.04 480.04" style="enable-background:new 0 0 480.04 480.04;" xml:space="preserve">
<g>
	<g>
		<path d="M344.04,400.02c-4.418,0-8,3.582-8,8v16c0,4.418,3.582,8,8,8s8-3.582,8-8v-16
			C352.04,403.602,348.458,400.02,344.04,400.02z"/>
	</g>
</g>
<g>
	<g>
		<path d="M344.04,448.02c-4.418,0-8,3.582-8,8v8h-8c-4.418,0-8,3.582-8,8s3.582,8,8,8h16c4.418,0,8-3.582,8-8v-16
			C352.04,451.602,348.458,448.02,344.04,448.02z"/>
	</g>
</g>
<g>
	<g>
		<path d="M297.824,464.02H267.6c-4.418,0-8,3.582-8,8s3.582,8,8,8h30.224c4.418,0,8-3.582,8-8S302.242,464.02,297.824,464.02z"/>
	</g>
</g>
<g>
	<g>
		<path d="M176.928,464.02h-30.216c-4.418,0-8,3.582-8,8s3.582,8,8,8h30.216c4.418,0,8-3.582,8-8S181.346,464.02,176.928,464.02z"/>
	</g>
</g>
<g>
	<g>
		<path d="M237.376,464.02H207.16c-4.418,0-8,3.582-8,8s3.582,8,8,8h30.216c4.418,0,8-3.582,8-8S241.794,464.02,237.376,464.02z"/>
	</g>
</g>
<g>
	<g>
		<path d="M116.488,464.02H86.264c-4.418,0-8,3.582-8,8s3.582,8,8,8h30.224c4.418,0,8-3.582,8-8S120.906,464.02,116.488,464.02z"/>
	</g>
</g>
<g>
	<g>
		<path d="M56.04,464.02h-8v-8c0-4.418-3.582-8-8-8s-8,3.582-8,8v16c0,4.418,3.582,8,8,8h16c4.418,0,8-3.582,8-8
			S60.458,464.02,56.04,464.02z"/>
	</g>
</g>
<g>
	<g>
		<path d="M40.04,180.388c-4.418,0-8,3.582-8,8v33.456c0,4.418,3.582,8,8,8s8-3.582,8-8v-33.456
			C48.04,183.97,44.458,180.388,40.04,180.388z"/>
	</g>
</g>
<g>
	<g>
		<path d="M40.04,247.292c-4.418,0-8,3.582-8,8v33.456c0,4.418,3.582,8,8,8s8-3.582,8-8v-33.456
			C48.04,250.874,44.458,247.292,40.04,247.292z"/>
	</g>
</g>
<g>
	<g>
		<path d="M40.04,381.116c-4.418,0-8,3.582-8,8v33.448c0,4.418,3.582,8,8,8s8-3.582,8-8v-33.448
			C48.04,384.698,44.458,381.116,40.04,381.116z"/>
	</g>
</g>
<g>
	<g>
		<path d="M40.04,314.196c-4.418,0-8,3.582-8,8v33.464c0,4.418,3.582,8,8,8s8-3.582,8-8v-33.464
			C48.04,317.778,44.458,314.196,40.04,314.196z"/>
	</g>
</g>
<g>
	<g>
		<path d="M40.04,113.476c-4.418,0-8,3.582-8,8v33.456c0,4.418,3.582,8,8,8s8-3.582,8-8v-33.456
			C48.04,117.058,44.458,113.476,40.04,113.476z"/>
	</g>
</g>
<g>
	<g>
		<path d="M79.28,32.06C75.492,13.403,59.078,0.001,40.04,0.02C17.949-0.002,0.022,17.889,0,39.98
			c-0.019,19.038,13.383,35.452,32.04,39.24v8.8c0,4.418,3.582,8,8,8s8-3.582,8-8v-8.8C69.69,74.824,83.676,53.71,79.28,32.06z
			 M40.04,64.02c-13.255,0-24-10.745-24-24s10.745-24,24-24s24,10.745,24,24S53.295,64.02,40.04,64.02z"/>
	</g>
</g>
<g>
	<g>
		<path d="M344.04,0.02c-75.111,0-136,60.889-136,136c0,72.544,124.328,237.832,129.6,244.8l6.4,8.464l6.4-8.432
			c5.272-7,129.6-172.288,129.6-244.832C480.04,60.909,419.151,0.02,344.04,0.02z M344.04,362.556
			c-25.688-35.136-120-168.184-120-226.536c0.075-66.243,53.757-119.925,120-120c66.243,0.075,119.925,53.757,120,120
			C464.04,194.372,369.728,327.42,344.04,362.556z"/>
	</g>
</g>
<g>
	<g>
		<path d="M344.04,80.02c-30.928,0-56,25.072-56,56c0,30.928,25.072,56,56,56c30.911-0.04,55.96-25.089,56-56
			C400.04,105.092,374.968,80.02,344.04,80.02z M344.04,176.02c-22.08-0.026-39.974-17.92-40-40c0-22.091,17.909-40,40-40
			c22.091,0,40,17.909,40,40S366.132,176.02,344.04,176.02z"/>
	</g>
</g>
<g>
</g>
<g>
</g>
<g>
</g>
<g>
</g>
<g>
</g>
<g>
</g>
<g>
</g>
<g>
</g>
<g>
</g>
<g>
</g>
<g>
</g>
<g>
</g>
<g>
</g>
<g>
</g>
<g>
</g>
</svg>
