<svg xmlns="http://www.w3.org/2000/svg" width="25.466" height="19.992" viewBox="0 0 25.466 19.992">
  <g id="cloud-computing" transform="translate(0 -55.032)">
    <g id="Group_2995" data-name="Group 2995" transform="translate(0 55.032)">
      <g id="Group_2994" data-name="Group 2994" transform="translate(0)">
        <path id="Path_2785" data-name="Path 2785" d="M21.218,61.656A8.753,8.753,0,0,0,4,63.152a4.774,4.774,0,0,0,.8,9.485H8.772V71.045H4.794a3.183,3.183,0,0,1,0-6.366.8.8,0,0,0,.8-.8,7.161,7.161,0,0,1,14.188-1.393.8.8,0,0,0,.676.637,3.979,3.979,0,0,1-.541,7.917H16.73v1.591h3.183a5.57,5.57,0,0,0,1.3-10.981Z" transform="translate(0 -55.032)" fill="#4c8ff8"/>
        <path id="Path_2786" data-name="Path 2786" d="M184.218,249.242l-3.183,3.183,1.122,1.122,1.83-1.822v7.631h1.591v-7.631l1.822,1.822,1.122-1.122-3.183-3.183A.8.8,0,0,0,184.218,249.242Z" transform="translate(-172.032 -239.364)" fill="#4c8ff8"/>
      </g>
    </g>
  </g>
</svg>
