<svg xmlns="http://www.w3.org/2000/svg" width="26.053" height="21.349" viewBox="0 0 26.053 21.349">
  <path id="Path_2803" data-name="Path 2803" d="M23.556,39H5.325a2.5,2.5,0,0,0-2.491,2.5v.03H2.5A2.5,2.5,0,0,0,0,44.018V57.846a2.511,2.511,0,0,0,2.5,2.5H20.728a2.5,2.5,0,0,0,2.491-2.5v-.03h.338a2.5,2.5,0,0,0,2.5-2.485V41.5A2.507,2.507,0,0,0,23.556,39ZM20.728,59.143H2.5a1.305,1.305,0,0,1-1.291-1.3V44.018A1.29,1.29,0,0,1,2.5,42.739H20.728a1.28,1.28,0,0,1,1.285,1.279v3.45a1.485,1.485,0,0,1-.32.036h-3.48a3.435,3.435,0,0,0,0,6.869h3.474c.109-.006.217-.018.32-.03l.006,3.5A1.3,1.3,0,0,1,20.728,59.143Zm4.119-3.811a1.29,1.29,0,0,1-1.291,1.279h-.338v-2.7a3.3,3.3,0,0,0,.694-.633l.935-1.206Zm-1.888-2.786a1.624,1.624,0,0,1-1.266.627h-3.48a2.231,2.231,0,0,1,0-4.463h3.474a2.751,2.751,0,0,0,1.2-.271,2.8,2.8,0,0,0,1.019-.82l.935-1.206.006,3.685Zm1.888-8.105-1.628,2.1V44.018a2.486,2.486,0,0,0-2.491-2.485H4.041V41.5a1.3,1.3,0,0,1,1.285-1.3H23.556a1.305,1.305,0,0,1,1.291,1.3V44.44Z" transform="translate(0 -39)" fill="#555"/>
</svg>
